ISO-10303-21;
HEADER;
FILE_DESCRIPTION (( 'STEP AP214' ),
    '1' );
FILE_NAME ('AFS14A04-1575.42-T3.STEP',
    '2023-05-01T14:00:14',
    ( '' ),
    ( '' ),
    'SwSTEP 2.0',
    'SolidWorks 2021',
    '' );
FILE_SCHEMA (( 'AUTOMOTIVE_DESIGN' ));
ENDSEC;

DATA;
#1 = DIRECTION ( 'NONE',  ( 8.340016711426957754E-17, 0.000000000000000000, 1.000000000000000000 ) ) ;
#2 =( NAMED_UNIT ( * ) PLANE_ANGLE_UNIT ( ) SI_UNIT ( $, .RADIAN. ) );
#3 = DIRECTION ( 'NONE',  ( 0.000000000000000000, 0.000000000000000000, -1.000000000000000000 ) ) ;
#4 = UNCERTAINTY_MEASURE_WITH_UNIT (LENGTH_MEASURE( 1.000000000000000082E-05 ), #1115, 'distance_accuracy_value', 'NONE');
#5 = DIRECTION ( 'NONE',  ( -1.000000000000000000, 0.000000000000000000, -0.000000000000000000 ) ) ;
#6 = ORIENTED_EDGE ( 'NONE', *, *, #863, .T. ) ;
#7 =( NAMED_UNIT ( * ) SI_UNIT ( $, .STERADIAN. ) SOLID_ANGLE_UNIT ( ) );
#8 =( LENGTH_UNIT ( ) NAMED_UNIT ( * ) SI_UNIT ( .MILLI., .METRE. ) );
#9 = FACE_OUTER_BOUND ( 'NONE', #1214, .T. ) ;
#10 = VECTOR ( 'NONE', #153, 1000.000000000000000 ) ;
#11 = ORIENTED_EDGE ( 'NONE', *, *, #829, .T. ) ;
#12 = LINE ( 'NONE', #879, #1010 ) ;
#13 = ORIENTED_EDGE ( 'NONE', *, *, #148, .F. ) ;
#14 = COLOUR_RGB ( '',0.6470588235294117974, 0.5176470588235293491, 0.000000000000000000 ) ;
#15 = VECTOR ( 'NONE', #483, 1000.000000000000000 ) ;
#16 = FACE_OUTER_BOUND ( 'NONE', #607, .T. ) ;
#17 =( LENGTH_UNIT ( ) NAMED_UNIT ( * ) SI_UNIT ( .MILLI., .METRE. ) );
#18 = PRESENTATION_LAYER_ASSIGNMENT (  '', '', ( #598 ) ) ;
#19 = EDGE_LOOP ( 'NONE', ( #933, #994, #992, #175 ) ) ;
#20 = DIRECTION ( 'NONE',  ( 0.000000000000000000, 0.000000000000000000, 1.000000000000000000 ) ) ;
#21 = CARTESIAN_POINT ( 'NONE',  ( 0.000000000000000000, 0.3600000000000000422, 0.1625000000000000056 ) ) ;
#22 = ADVANCED_FACE ( 'NONE', ( #651 ), #642, .F. ) ;
#23 =( NAMED_UNIT ( * ) SI_UNIT ( $, .STERADIAN. ) SOLID_ANGLE_UNIT ( ) );
#24 = VERTEX_POINT ( 'NONE', #542 ) ;
#25 = DIRECTION ( 'NONE',  ( 1.000000000000000000, 0.000000000000000000, 0.000000000000000000 ) ) ;
#26 = DIRECTION ( 'NONE',  ( -0.000000000000000000, -1.000000000000000000, -0.000000000000000000 ) ) ;
#27 = EDGE_CURVE ( 'NONE', #211, #355, #974, .T. ) ;
#28 =( NAMED_UNIT ( * ) SI_UNIT ( $, .STERADIAN. ) SOLID_ANGLE_UNIT ( ) );
#29 = ORIENTED_EDGE ( 'NONE', *, *, #81, .T. ) ;
#30 = CARTESIAN_POINT ( 'NONE',  ( -0.6250000000000000000, 0.3600000000000000422, 0.1250000000000000555 ) ) ;
#31 = ORIENTED_EDGE ( 'NONE', *, *, #600, .F. ) ;
#32 = AXIS2_PLACEMENT_3D ( 'NONE', #230, #25, #755 ) ;
#33 = SURFACE_STYLE_FILL_AREA ( #998 ) ;
#34 = CARTESIAN_POINT ( 'NONE',  ( 0.1250000000000000555, 0.3600000000000000422, 0.4500000000000000666 ) ) ;
#35 = FILL_AREA_STYLE ('',( #663 ) ) ;
#36 = SURFACE_SIDE_STYLE ('',( #1105 ) ) ;
#37 = DIRECTION ( 'NONE',  ( 0.000000000000000000, 0.000000000000000000, -1.000000000000000000 ) ) ;
#38 = VECTOR ( 'NONE', #754, 1000.000000000000000 ) ;
#39 = ORIENTED_EDGE ( 'NONE', *, *, #1357, .T. ) ;
#40 = SURFACE_SIDE_STYLE ('',( #1195 ) ) ;
#41 = ORIENTED_EDGE ( 'NONE', *, *, #531, .F. ) ;
#42 =( NAMED_UNIT ( * ) SI_UNIT ( $, .STERADIAN. ) SOLID_ANGLE_UNIT ( ) );
#43 = SURFACE_STYLE_USAGE ( .BOTH. , #1332 ) ;
#44 = PRODUCT_DEFINITION_SHAPE ( 'NONE', 'NONE',  #528 ) ;
#45 = EDGE_CURVE ( 'NONE', #1077, #584, #771, .T. ) ;
#46 = ORIENTED_EDGE ( 'NONE', *, *, #1141, .T. ) ;
#47 = EDGE_LOOP ( 'NONE', ( #1206, #458, #1226, #428 ) ) ;
#48 = AXIS2_PLACEMENT_3D ( 'NONE', #305, #515, #712 ) ;
#49 = LINE ( 'NONE', #463, #887 ) ;
#50 = PRESENTATION_LAYER_ASSIGNMENT (  '', '', ( #641 ) ) ;
#51 = LINE ( 'NONE', #465, #1056 ) ;
#52 = UNCERTAINTY_MEASURE_WITH_UNIT (LENGTH_MEASURE( 1.000000000000000082E-05 ), #1232, 'distance_accuracy_value', 'NONE');
#53 = PRESENTATION_LAYER_ASSIGNMENT (  '', '', ( #188 ) ) ;
#54 = COLOUR_RGB ( '',0.6470588235294117974, 0.5176470588235293491, 0.000000000000000000 ) ;
#55 = VERTEX_POINT ( 'NONE', #1350 ) ;
#56 = PRESENTATION_STYLE_ASSIGNMENT (( #1003 ) ) ;
#57 = CARTESIAN_POINT ( 'NONE',  ( 0.000000000000000000, 0.3600000000000000422, 0.4500000000000000666 ) ) ;
#58 = AXIS2_PLACEMENT_3D ( 'NONE', #449, #1201, #546 ) ;
#59 = LINE ( 'NONE', #1015, #1103 ) ;
#60 = LINE ( 'NONE', #802, #668 ) ;
#61 = VERTEX_POINT ( 'NONE', #566 ) ;
#62 = EDGE_CURVE ( 'NONE', #561, #1301, #681, .T. ) ;
#63 = LINE ( 'NONE', #1100, #510 ) ;
#64 =( NAMED_UNIT ( * ) PLANE_ANGLE_UNIT ( ) SI_UNIT ( $, .RADIAN. ) );
#65 = FACE_OUTER_BOUND ( 'NONE', #1017, .T. ) ;
#66 = SURFACE_SIDE_STYLE ('',( #910 ) ) ;
#67 = CARTESIAN_POINT ( 'NONE',  ( -0.3749999999999999445, 0.3600000000000000422, -0.1250000000000000555 ) ) ;
#68 = CARTESIAN_POINT ( 'NONE',  ( -0.3749999999999999445, 0.3499999999999999778, -0.1250000000000000555 ) ) ;
#69 = ORIENTED_EDGE ( 'NONE', *, *, #1121, .F. ) ;
#70 =( LENGTH_UNIT ( ) NAMED_UNIT ( * ) SI_UNIT ( .MILLI., .METRE. ) );
#71 = EDGE_CURVE ( 'NONE', #195, #1172, #591, .T. ) ;
#72 = CARTESIAN_POINT ( 'NONE',  ( -0.6250000000000000000, 0.3600000000000000422, 0.4500000000000000666 ) ) ;
#73 = VECTOR ( 'NONE', #925, 1000.000000000000000 ) ;
#74 = CARTESIAN_POINT ( 'NONE',  ( -0.6999999999999999556, 0.3499999999999999778, -0.5500000000000000444 ) ) ;
#75 = ORIENTED_EDGE ( 'NONE', *, *, #274, .F. ) ;
#76 = AXIS2_PLACEMENT_3D ( 'NONE', #190, #286, #685 ) ;
#77 = VECTOR ( 'NONE', #334, 1000.000000000000000 ) ;
#78 = FILL_AREA_STYLE_COLOUR ( '', #716 ) ;
#79 = VECTOR ( 'NONE', #80, 1000.000000000000000 ) ;
#80 = DIRECTION ( 'NONE',  ( 8.340016711426957754E-17, 0.000000000000000000, 1.000000000000000000 ) ) ;
#81 = EDGE_CURVE ( 'NONE', #793, #1204, #59, .T. ) ;
#82 = PRESENTATION_LAYER_ASSIGNMENT (  '', '', ( #426 ) ) ;
#83 = UNCERTAINTY_MEASURE_WITH_UNIT (LENGTH_MEASURE( 1.000000000000000082E-05 ), #1143, 'distance_accuracy_value', 'NONE');
#84 = MECHANICAL_DESIGN_GEOMETRIC_PRESENTATION_REPRESENTATION (  '', ( #403 ), #168 ) ;
#85 = SURFACE_STYLE_FILL_AREA ( #1031 ) ;
#86 = ORIENTED_EDGE ( 'NONE', *, *, #1307, .F. ) ;
#87 = PLANE ( 'NONE',  #76 ) ;
#88 = FACE_OUTER_BOUND ( 'NONE', #233, .T. ) ;
#89 = SURFACE_STYLE_FILL_AREA ( #404 ) ;
#90 = SURFACE_STYLE_FILL_AREA ( #1052 ) ;
#91 = ORIENTED_EDGE ( 'NONE', *, *, #1218, .F. ) ;
#92 =( NAMED_UNIT ( * ) SI_UNIT ( $, .STERADIAN. ) SOLID_ANGLE_UNIT ( ) );
#93 = DIRECTION ( 'NONE',  ( -1.668003342285392044E-16, 0.000000000000000000, 1.000000000000000000 ) ) ;
#94 = SURFACE_STYLE_FILL_AREA ( #714 ) ;
#95 = COLOUR_RGB ( '',0.6470588235294117974, 0.5176470588235293491, 0.000000000000000000 ) ;
#96 = ADVANCED_FACE ( 'NONE', ( #273 ), #154, .T. ) ;
#97 = ORIENTED_EDGE ( 'NONE', *, *, #311, .T. ) ;
#98 = CARTESIAN_POINT ( 'NONE',  ( 0.6250000000000002220, 0.3600000000000000422, -0.1625000000000000056 ) ) ;
#99 = LINE ( 'NONE', #1266, #534 ) ;
#100 = SURFACE_STYLE_USAGE ( .BOTH. , #1013 ) ;
#101 = LINE ( 'NONE', #841, #301 ) ;
#102 =( GEOMETRIC_REPRESENTATION_CONTEXT ( 3 ) GLOBAL_UNCERTAINTY_ASSIGNED_CONTEXT ( ( #867 ) ) GLOBAL_UNIT_ASSIGNED_CONTEXT ( ( #1317, #876, #1194 ) ) REPRESENTATION_CONTEXT ( 'NONE', 'WORKASPACE' ) );
#103 = PLANE ( 'NONE',  #441 ) ;
#104 = DIRECTION ( 'NONE',  ( 0.000000000000000000, 0.000000000000000000, 1.000000000000000000 ) ) ;
#105 = CARTESIAN_POINT ( 'NONE',  ( 0.6250000000000002220, 0.3499999999999999778, -0.000000000000000000 ) ) ;
#106 = CARTESIAN_POINT ( 'NONE',  ( 0.6250000000000002220, 0.3600000000000000422, -0.1625000000000000056 ) ) ;
#107 = EDGE_CURVE ( 'NONE', #335, #344, #1212, .T. ) ;
#108 = ORIENTED_EDGE ( 'NONE', *, *, #612, .F. ) ;
#109 = SURFACE_SIDE_STYLE ('',( #649 ) ) ;
#110 = FILL_AREA_STYLE ('',( #1359 ) ) ;
#111 = MECHANICAL_DESIGN_GEOMETRIC_PRESENTATION_REPRESENTATION (  '', ( #713 ), #915 ) ;
#112 = LINE ( 'NONE', #960, #873 ) ;
#113 = ORIENTED_EDGE ( 'NONE', *, *, #784, .F. ) ;
#114 = DIRECTION ( 'NONE',  ( 1.668003342285391551E-16, 0.000000000000000000, 1.000000000000000000 ) ) ;
#115 = VECTOR ( 'NONE', #289, 1000.000000000000000 ) ;
#116 = PRESENTATION_STYLE_ASSIGNMENT (( #1070 ) ) ;
#117 = ORIENTED_EDGE ( 'NONE', *, *, #1027, .F. ) ;
#118 =( GEOMETRIC_REPRESENTATION_CONTEXT ( 3 ) GLOBAL_UNCERTAINTY_ASSIGNED_CONTEXT ( ( #801 ) ) GLOBAL_UNIT_ASSIGNED_CONTEXT ( ( #957, #536, #28 ) ) REPRESENTATION_CONTEXT ( 'NONE', 'WORKASPACE' ) );
#119 = VECTOR ( 'NONE', #201, 1000.000000000000000 ) ;
#120 = DIRECTION ( 'NONE',  ( 0.000000000000000000, 0.000000000000000000, 1.000000000000000000 ) ) ;
#121 = ORIENTED_EDGE ( 'NONE', *, *, #241, .F. ) ;
#122 = EDGE_CURVE ( 'NONE', #985, #61, #812, .T. ) ;
#123 =( LENGTH_UNIT ( ) NAMED_UNIT ( * ) SI_UNIT ( .MILLI., .METRE. ) );
#124 =( NAMED_UNIT ( * ) SI_UNIT ( $, .STERADIAN. ) SOLID_ANGLE_UNIT ( ) );
#125 = ORIENTED_EDGE ( 'NONE', *, *, #1259, .T. ) ;
#126 =( NAMED_UNIT ( * ) SI_UNIT ( $, .STERADIAN. ) SOLID_ANGLE_UNIT ( ) );
#127 = ORIENTED_EDGE ( 'NONE', *, *, #1069, .T. ) ;
#128 = CARTESIAN_POINT ( 'NONE',  ( -0.1250000000000000000, 0.3499999999999999778, 0.4500000000000000666 ) ) ;
#129 = SURFACE_STYLE_USAGE ( .BOTH. , #337 ) ;
#130 = ORIENTED_EDGE ( 'NONE', *, *, #1300, .T. ) ;
#131 = PRESENTATION_LAYER_ASSIGNMENT (  '', '', ( #1316 ) ) ;
#132 = LINE ( 'NONE', #963, #38 ) ;
#133 = PRESENTATION_STYLE_ASSIGNMENT (( #440 ) ) ;
#134 = AXIS2_PLACEMENT_3D ( 'NONE', #469, #1220, #174 ) ;
#135 = PRESENTATION_LAYER_ASSIGNMENT (  '', '', ( #552 ) ) ;
#136 = AXIS2_PLACEMENT_3D ( 'NONE', #631, #1058, #104 ) ;
#137 = DIRECTION ( 'NONE',  ( 1.000000000000000000, 0.000000000000000000, -8.340016711426960219E-17 ) ) ;
#138 = VECTOR ( 'NONE', #800, 1000.000000000000000 ) ;
#139 = FILL_AREA_STYLE ('',( #969 ) ) ;
#140 = VERTEX_POINT ( 'NONE', #68 ) ;
#141 = DIRECTION ( 'NONE',  ( 1.000000000000000000, -0.000000000000000000, 0.000000000000000000 ) ) ;
#142 = APPLICATION_PROTOCOL_DEFINITION ( 'draft international standard', 'automotive_design', 1998, #658 ) ;
#143 = VECTOR ( 'NONE', #203, 1000.000000000000000 ) ;
#144 = EDGE_CURVE ( 'NONE', #809, #24, #912, .T. ) ;
#145 = SURFACE_STYLE_FILL_AREA ( #497 ) ;
#146 = ORIENTED_EDGE ( 'NONE', *, *, #391, .F. ) ;
#147 = UNCERTAINTY_MEASURE_WITH_UNIT (LENGTH_MEASURE( 1.000000000000000082E-05 ), #70, 'distance_accuracy_value', 'NONE');
#148 = EDGE_CURVE ( 'NONE', #519, #394, #284, .T. ) ;
#149 = VERTEX_POINT ( 'NONE', #1000 ) ;
#150 = CARTESIAN_POINT ( 'NONE',  ( -0.3749999999999999445, 0.3600000000000000422, 0.1250000000000000555 ) ) ;
#151 = PRESENTATION_STYLE_ASSIGNMENT (( #382 ) ) ;
#152 = DIRECTION ( 'NONE',  ( 1.000000000000000000, 0.000000000000000000, 0.000000000000000000 ) ) ;
#153 = DIRECTION ( 'NONE',  ( -1.000000000000000000, -0.000000000000000000, -0.000000000000000000 ) ) ;
#154 = PLANE ( 'NONE',  #171 ) ;
#155 = SURFACE_STYLE_USAGE ( .BOTH. , #1335 ) ;
#156 = ORIENTED_EDGE ( 'NONE', *, *, #1083, .T. ) ;
#157 =( NAMED_UNIT ( * ) SI_UNIT ( $, .STERADIAN. ) SOLID_ANGLE_UNIT ( ) );
#158 = VECTOR ( 'NONE', #1231, 1000.000000000000000 ) ;
#159 = STYLED_ITEM ( 'NONE', ( #269 ), #821 ) ;
#160 = DIRECTION ( 'NONE',  ( 0.000000000000000000, 0.000000000000000000, -1.000000000000000000 ) ) ;
#161 = EDGE_CURVE ( 'NONE', #511, #760, #488, .T. ) ;
#162 = UNCERTAINTY_MEASURE_WITH_UNIT (LENGTH_MEASURE( 1.000000000000000082E-05 ), #1087, 'distance_accuracy_value', 'NONE');
#163 =( GEOMETRIC_REPRESENTATION_CONTEXT ( 3 ) GLOBAL_UNCERTAINTY_ASSIGNED_CONTEXT ( ( #813 ) ) GLOBAL_UNIT_ASSIGNED_CONTEXT ( ( #824, #1261, #1277 ) ) REPRESENTATION_CONTEXT ( 'NONE', 'WORKASPACE' ) );
#164 = COLOUR_RGB ( '',0.6470588235294117974, 0.5176470588235293491, 0.000000000000000000 ) ;
#165 = MECHANICAL_DESIGN_GEOMETRIC_PRESENTATION_REPRESENTATION (  '', ( #442 ), #1230 ) ;
#166 = ORIENTED_EDGE ( 'NONE', *, *, #71, .T. ) ;
#167 = CARTESIAN_POINT ( 'NONE',  ( 0.000000000000000000, 0.3600000000000000422, 0.000000000000000000 ) ) ;
#168 =( GEOMETRIC_REPRESENTATION_CONTEXT ( 3 ) GLOBAL_UNCERTAINTY_ASSIGNED_CONTEXT ( ( #1244 ) ) GLOBAL_UNIT_ASSIGNED_CONTEXT ( ( #1278, #331, #92 ) ) REPRESENTATION_CONTEXT ( 'NONE', 'WORKASPACE' ) );
#169 = FILL_AREA_STYLE_COLOUR ( '', #846 ) ;
#170 = CARTESIAN_POINT ( 'NONE',  ( -0.1249999999999999722, 0.3600000000000000422, 1.042502088928369565E-17 ) ) ;
#171 = AXIS2_PLACEMENT_3D ( 'NONE', #376, #160, #789 ) ;
#172 =( NAMED_UNIT ( * ) SI_UNIT ( $, .STERADIAN. ) SOLID_ANGLE_UNIT ( ) );
#173 = EDGE_CURVE ( 'NONE', #211, #1184, #51, .T. ) ;
#174 = DIRECTION ( 'NONE',  ( -1.000000000000000000, 0.000000000000000000, -0.000000000000000000 ) ) ;
#175 = ORIENTED_EDGE ( 'NONE', *, *, #569, .T. ) ;
#176 = DIRECTION ( 'NONE',  ( 0.000000000000000000, 0.000000000000000000, 1.000000000000000000 ) ) ;
#177 = SURFACE_STYLE_USAGE ( .BOTH. , #1240 ) ;
#178 = PLANE ( 'NONE',  #670 ) ;
#179 = CARTESIAN_POINT ( 'NONE',  ( 0.000000000000000000, 0.3600000000000000422, -0.1250000000000000555 ) ) ;
#180 = UNCERTAINTY_MEASURE_WITH_UNIT (LENGTH_MEASURE( 1.000000000000000082E-05 ), #1337, 'distance_accuracy_value', 'NONE');
#181 = ORIENTED_EDGE ( 'NONE', *, *, #1286, .F. ) ;
#182 = SURFACE_STYLE_FILL_AREA ( #368 ) ;
#183 = FACE_OUTER_BOUND ( 'NONE', #302, .T. ) ;
#184 = LINE ( 'NONE', #595, #73 ) ;
#185 = FILL_AREA_STYLE_COLOUR ( '', #1079 ) ;
#186 = FILL_AREA_STYLE_COLOUR ( '', #734 ) ;
#187 = ORIENTED_EDGE ( 'NONE', *, *, #1151, .T. ) ;
#188 = STYLED_ITEM ( 'NONE', ( #133 ), #931 ) ;
#189 = VECTOR ( 'NONE', #1023, 1000.000000000000000 ) ;
#190 = CARTESIAN_POINT ( 'NONE',  ( 0.000000000000000000, 0.3600000000000000422, 0.000000000000000000 ) ) ;
#191 = PLANE ( 'NONE',  #136 ) ;
#192 = DIRECTION ( 'NONE',  ( 0.000000000000000000, 0.000000000000000000, 1.000000000000000000 ) ) ;
#193 = VERTEX_POINT ( 'NONE', #897 ) ;
#194 =( NAMED_UNIT ( * ) SI_UNIT ( $, .STERADIAN. ) SOLID_ANGLE_UNIT ( ) );
#195 = VERTEX_POINT ( 'NONE', #576 ) ;
#196 = SURFACE_STYLE_USAGE ( .BOTH. , #1149 ) ;
#197 =( NAMED_UNIT ( * ) PLANE_ANGLE_UNIT ( ) SI_UNIT ( $, .RADIAN. ) );
#198 = CARTESIAN_POINT ( 'NONE',  ( 0.000000000000000000, 0.3600000000000000422, 0.4500000000000000666 ) ) ;
#199 = ORIENTED_EDGE ( 'NONE', *, *, #62, .F. ) ;
#200 = CARTESIAN_POINT ( 'NONE',  ( 0.000000000000000000, 0.3600000000000000422, 0.000000000000000000 ) ) ;
#201 = DIRECTION ( 'NONE',  ( -0.000000000000000000, -1.000000000000000000, -0.000000000000000000 ) ) ;
#202 = CARTESIAN_POINT ( 'NONE',  ( 0.000000000000000000, 0.3600000000000000422, -0.4500000000000000666 ) ) ;
#203 = DIRECTION ( 'NONE',  ( -0.000000000000000000, -0.000000000000000000, -1.000000000000000000 ) ) ;
#204 =( GEOMETRIC_REPRESENTATION_CONTEXT ( 3 ) GLOBAL_UNCERTAINTY_ASSIGNED_CONTEXT ( ( #4 ) ) GLOBAL_UNIT_ASSIGNED_CONTEXT ( ( #1115, #64, #908 ) ) REPRESENTATION_CONTEXT ( 'NONE', 'WORKASPACE' ) );
#205 = VECTOR ( 'NONE', #375, 1000.000000000000000 ) ;
#206 = MECHANICAL_DESIGN_GEOMETRIC_PRESENTATION_REPRESENTATION (  '', ( #1053 ), #689 ) ;
#207 = PLANE ( 'NONE',  #32 ) ;
#208 = FILL_AREA_STYLE_COLOUR ( '', #652 ) ;
#209 =( NAMED_UNIT ( * ) SI_UNIT ( $, .STERADIAN. ) SOLID_ANGLE_UNIT ( ) );
#210 = SURFACE_STYLE_USAGE ( .BOTH. , #1165 ) ;
#211 = VERTEX_POINT ( 'NONE', #921 ) ;
#212 = PRESENTATION_STYLE_ASSIGNMENT (( #721 ) ) ;
#213 = DIRECTION ( 'NONE',  ( 0.000000000000000000, 0.000000000000000000, 1.000000000000000000 ) ) ;
#214 = ORIENTED_EDGE ( 'NONE', *, *, #393, .F. ) ;
#215 = DIRECTION ( 'NONE',  ( 1.000000000000000000, -0.000000000000000000, 0.000000000000000000 ) ) ;
#216 = FACE_OUTER_BOUND ( 'NONE', #827, .T. ) ;
#217 = ORIENTED_EDGE ( 'NONE', *, *, #1151, .F. ) ;
#218 = VECTOR ( 'NONE', #894, 1000.000000000000000 ) ;
#219 = FACE_OUTER_BOUND ( 'NONE', #506, .T. ) ;
#220 = ORIENTED_EDGE ( 'NONE', *, *, #122, .F. ) ;
#221 = PLANE ( 'NONE',  #934 ) ;
#222 = STYLED_ITEM ( 'NONE', ( #56 ), #959 ) ;
#223 = CARTESIAN_POINT ( 'NONE',  ( -0.6250000000000000000, 0.3499999999999999778, -0.1250000000000000555 ) ) ;
#224 = CARTESIAN_POINT ( 'NONE',  ( 0.000000000000000000, 0.3499999999999999778, -0.1250000000000000555 ) ) ;
#225 = ORIENTED_EDGE ( 'NONE', *, *, #768, .T. ) ;
#226 = VECTOR ( 'NONE', #698, 1000.000000000000000 ) ;
#227 = PRESENTATION_LAYER_ASSIGNMENT (  '', '', ( #1104 ) ) ;
#228 = FILL_AREA_STYLE ('',( #1288 ) ) ;
#229 = ORIENTED_EDGE ( 'NONE', *, *, #527, .F. ) ;
#230 = CARTESIAN_POINT ( 'NONE',  ( -0.6250000000000000000, 0.3600000000000000422, 0.000000000000000000 ) ) ;
#231 = FILL_AREA_STYLE ('',( #972 ) ) ;
#232 = SURFACE_SIDE_STYLE ('',( #1096 ) ) ;
#233 = EDGE_LOOP ( 'NONE', ( #181, #371, #502, #214 ) ) ;
#234 = SURFACE_STYLE_FILL_AREA ( #1189 ) ;
#235 = FILL_AREA_STYLE ('',( #244 ) ) ;
#236 = EDGE_LOOP ( 'NONE', ( #682, #91, #1306, #978 ) ) ;
#237 = PRODUCT ( 'AFS14A04-1575.42-T3', 'AFS14A04-1575.42-T3', '', ( #1312 ) ) ;
#238 = CARTESIAN_POINT ( 'NONE',  ( -0.1249999999999999722, 0.3600000000000000422, 0.1250000000000000555 ) ) ;
#239 = LINE ( 'NONE', #1081, #499 ) ;
#240 = EDGE_LOOP ( 'NONE', ( #121, #278, #380, #1256 ) ) ;
#241 = EDGE_CURVE ( 'NONE', #471, #1301, #1327, .T. ) ;
#242 = DIRECTION ( 'NONE',  ( -8.340016711426960219E-17, 0.000000000000000000, 1.000000000000000000 ) ) ;
#243 =( GEOMETRIC_REPRESENTATION_CONTEXT ( 3 ) GLOBAL_UNCERTAINTY_ASSIGNED_CONTEXT ( ( #757 ) ) GLOBAL_UNIT_ASSIGNED_CONTEXT ( ( #296, #1156, #619 ) ) REPRESENTATION_CONTEXT ( 'NONE', 'WORKASPACE' ) );
#244 = FILL_AREA_STYLE_COLOUR ( '', #898 ) ;
#245 = LINE ( 'NONE', #562, #316 ) ;
#246 = PRESENTATION_STYLE_ASSIGNMENT (( #1199 ) ) ;
#247 = CARTESIAN_POINT ( 'NONE',  ( -0.6999999999999999556, 0.3499999999999999778, -0.5500000000000000444 ) ) ;
#248 = ORIENTED_EDGE ( 'NONE', *, *, #768, .F. ) ;
#249 = EDGE_CURVE ( 'NONE', #335, #211, #476, .T. ) ;
#250 = MECHANICAL_DESIGN_GEOMETRIC_PRESENTATION_REPRESENTATION (  '', ( #552 ), #400 ) ;
#251 = AXIS2_PLACEMENT_3D ( 'NONE', #1196, #37, #1076 ) ;
#252 = VECTOR ( 'NONE', #1294, 1000.000000000000000 ) ;
#253 =( NAMED_UNIT ( * ) PLANE_ANGLE_UNIT ( ) SI_UNIT ( $, .RADIAN. ) );
#254 = ORIENTED_EDGE ( 'NONE', *, *, #1094, .F. ) ;
#255 = CARTESIAN_POINT ( 'NONE',  ( 0.000000000000000000, 0.3499999999999999778, -0.4500000000000000666 ) ) ;
#256 = AXIS2_PLACEMENT_3D ( 'NONE', #299, #937, #1375 ) ;
#257 = CARTESIAN_POINT ( 'NONE',  ( 0.000000000000000000, 0.3600000000000000422, 0.000000000000000000 ) ) ;
#258 = CARTESIAN_POINT ( 'NONE',  ( -0.6250000000000000000, 0.3600000000000000422, -0.4500000000000000666 ) ) ;
#259 = UNCERTAINTY_MEASURE_WITH_UNIT (LENGTH_MEASURE( 1.000000000000000082E-05 ), #1075, 'distance_accuracy_value', 'NONE');
#260 = ORIENTED_EDGE ( 'NONE', *, *, #144, .T. ) ;
#261 = CARTESIAN_POINT ( 'NONE',  ( -0.6250000000000000000, 0.3600000000000000422, -0.4500000000000000666 ) ) ;
#262 = FILL_AREA_STYLE ('',( #1215 ) ) ;
#263 =( LENGTH_UNIT ( ) NAMED_UNIT ( * ) SI_UNIT ( .MILLI., .METRE. ) );
#264 = PRODUCT_DEFINITION_CONTEXT ( 'detailed design', #658, 'design' ) ;
#265 = PRESENTATION_STYLE_ASSIGNMENT (( #43 ) ) ;
#266 = SURFACE_SIDE_STYLE ('',( #386 ) ) ;
#267 = CARTESIAN_POINT ( 'NONE',  ( 0.6999999999999999556, -0.3499999999999999778, 0.5499999999999999334 ) ) ;
#268 = ORIENTED_EDGE ( 'NONE', *, *, #493, .T. ) ;
#269 = PRESENTATION_STYLE_ASSIGNMENT (( #362 ) ) ;
#270 = SURFACE_SIDE_STYLE ('',( #494 ) ) ;
#271 = PLANE ( 'NONE',  #1249 ) ;
#272 = LINE ( 'NONE', #67, #158 ) ;
#273 = FACE_OUTER_BOUND ( 'NONE', #1311, .T. ) ;
#274 = EDGE_CURVE ( 'NONE', #1064, #415, #932, .T. ) ;
#275 = UNCERTAINTY_MEASURE_WITH_UNIT (LENGTH_MEASURE( 1.000000000000000082E-05 ), #711, 'distance_accuracy_value', 'NONE');
#276 = VECTOR ( 'NONE', #781, 1000.000000000000000 ) ;
#277 = PRESENTATION_LAYER_ASSIGNMENT (  '', '', ( #1072 ) ) ;
#278 = ORIENTED_EDGE ( 'NONE', *, *, #917, .F. ) ;
#279 = DIRECTION ( 'NONE',  ( 0.000000000000000000, 0.000000000000000000, 1.000000000000000000 ) ) ;
#280 = FILL_AREA_STYLE ('',( #586 ) ) ;
#281 = SURFACE_STYLE_USAGE ( .BOTH. , #481 ) ;
#282 = CARTESIAN_POINT ( 'NONE',  ( 0.3750000000000000000, 0.3600000000000000422, -0.1625000000000000056 ) ) ;
#283 = VECTOR ( 'NONE', #1237, 1000.000000000000000 ) ;
#284 = LINE ( 'NONE', #369, #579 ) ;
#285 = EDGE_LOOP ( 'NONE', ( #217, #113, #707, #547 ) ) ;
#286 = DIRECTION ( 'NONE',  ( 0.000000000000000000, 1.000000000000000000, -0.000000000000000000 ) ) ;
#287 = FILL_AREA_STYLE ('',( #294 ) ) ;
#288 = CARTESIAN_POINT ( 'NONE',  ( 0.1250000000000000833, 0.3600000000000000422, 0.1250000000000000555 ) ) ;
#289 = DIRECTION ( 'NONE',  ( -0.000000000000000000, -1.000000000000000000, -0.000000000000000000 ) ) ;
#290 =( NAMED_UNIT ( * ) SI_UNIT ( $, .STERADIAN. ) SOLID_ANGLE_UNIT ( ) );
#291 = ORIENTED_EDGE ( 'NONE', *, *, #1307, .T. ) ;
#292 = ADVANCED_FACE ( 'NONE', ( #1168 ), #831, .T. ) ;
#293 = PRESENTATION_STYLE_ASSIGNMENT (( #177 ) ) ;
#294 = FILL_AREA_STYLE_COLOUR ( '', #363 ) ;
#295 = SURFACE_STYLE_FILL_AREA ( #1250 ) ;
#296 =( LENGTH_UNIT ( ) NAMED_UNIT ( * ) SI_UNIT ( .MILLI., .METRE. ) );
#297 = VECTOR ( 'NONE', #589, 1000.000000000000000 ) ;
#298 = AXIS2_PLACEMENT_3D ( 'NONE', #1101, #1114, #473 ) ;
#299 = CARTESIAN_POINT ( 'NONE',  ( 0.6999999999999999556, 0.3499999999999999778, -0.5500000000000000444 ) ) ;
#300 = MECHANICAL_DESIGN_GEOMETRIC_PRESENTATION_REPRESENTATION (  '', ( #487 ), #1065 ) ;
#301 = VECTOR ( 'NONE', #1270, 1000.000000000000000 ) ;
#302 = EDGE_LOOP ( 'NONE', ( #127, #851, #1298, #125 ) ) ;
#303 = COLOUR_RGB ( '',0.6470588235294117974, 0.5176470588235293491, 0.000000000000000000 ) ;
#304 = DIRECTION ( 'NONE',  ( -1.000000000000000000, 0.000000000000000000, -8.340016711426960219E-17 ) ) ;
#305 = CARTESIAN_POINT ( 'NONE',  ( 0.000000000000000000, 0.3600000000000000422, 0.1250000000000000555 ) ) ;
#306 = VECTOR ( 'NONE', #392, 1000.000000000000000 ) ;
#307 = ORIENTED_EDGE ( 'NONE', *, *, #829, .F. ) ;
#308 = CARTESIAN_POINT ( 'NONE',  ( 0.000000000000000000, 0.3600000000000000422, 0.4500000000000000666 ) ) ;
#309 = CARTESIAN_POINT ( 'NONE',  ( -0.1249999999999999722, 0.3499999999999999778, -0.1250000000000000555 ) ) ;
#310 = EDGE_CURVE ( 'NONE', #1059, #679, #1260, .T. ) ;
#311 = EDGE_CURVE ( 'NONE', #355, #332, #836, .T. ) ;
#312 = DIRECTION ( 'NONE',  ( 1.000000000000000000, -0.000000000000000000, 0.000000000000000000 ) ) ;
#313 =( NAMED_UNIT ( * ) SI_UNIT ( $, .STERADIAN. ) SOLID_ANGLE_UNIT ( ) );
#314 = CARTESIAN_POINT ( 'NONE',  ( 0.6999999999999999556, 0.3499999999999999778, -0.5500000000000000444 ) ) ;
#315 = AXIS2_PLACEMENT_3D ( 'NONE', #257, #677, #798 ) ;
#316 = VECTOR ( 'NONE', #884, 1000.000000000000000 ) ;
#317 = LINE ( 'NONE', #308, #1323 ) ;
#318 = ORIENTED_EDGE ( 'NONE', *, *, #1304, .T. ) ;
#319 = MECHANICAL_DESIGN_GEOMETRIC_PRESENTATION_REPRESENTATION (  '', ( #891 ), #1028 ) ;
#320 = DIRECTION ( 'NONE',  ( 0.000000000000000000, 1.000000000000000000, 0.000000000000000000 ) ) ;
#321 = STYLED_ITEM ( 'NONE', ( #1183 ), #1044 ) ;
#322 = MECHANICAL_DESIGN_GEOMETRIC_PRESENTATION_REPRESENTATION (  '', ( #735 ), #1373 ) ;
#323 =( GEOMETRIC_REPRESENTATION_CONTEXT ( 3 ) GLOBAL_UNCERTAINTY_ASSIGNED_CONTEXT ( ( #725 ) ) GLOBAL_UNIT_ASSIGNED_CONTEXT ( ( #777, #253, #543 ) ) REPRESENTATION_CONTEXT ( 'NONE', 'WORKASPACE' ) );
#324 = AXIS2_PLACEMENT_3D ( 'NONE', #21, #1097, #664 ) ;
#325 = MECHANICAL_DESIGN_GEOMETRIC_PRESENTATION_REPRESENTATION (  '', ( #1104 ), #555 ) ;
#326 = LINE ( 'NONE', #530, #1123 ) ;
#327 = ORIENTED_EDGE ( 'NONE', *, *, #569, .F. ) ;
#328 =( NAMED_UNIT ( * ) PLANE_ANGLE_UNIT ( ) SI_UNIT ( $, .RADIAN. ) );
#329 = EDGE_LOOP ( 'NONE', ( #46, #615, #338, #291 ) ) ;
#330 = DIRECTION ( 'NONE',  ( -1.000000000000000000, 0.000000000000000000, -8.340016711426960219E-17 ) ) ;
#331 =( NAMED_UNIT ( * ) PLANE_ANGLE_UNIT ( ) SI_UNIT ( $, .RADIAN. ) );
#332 = VERTEX_POINT ( 'NONE', #1253 ) ;
#333 = SURFACE_STYLE_FILL_AREA ( #627 ) ;
#334 = DIRECTION ( 'NONE',  ( 1.000000000000000000, -0.000000000000000000, 0.000000000000000000 ) ) ;
#335 = VERTEX_POINT ( 'NONE', #412 ) ;
#336 = MECHANICAL_DESIGN_GEOMETRIC_PRESENTATION_REPRESENTATION (  '', ( #159 ), #1137 ) ;
#337 = SURFACE_SIDE_STYLE ('',( #1091 ) ) ;
#338 = ORIENTED_EDGE ( 'NONE', *, *, #493, .F. ) ;
#339 = DIRECTION ( 'NONE',  ( 8.340016711426957754E-17, 0.000000000000000000, -1.000000000000000000 ) ) ;
#340 = CARTESIAN_POINT ( 'NONE',  ( 0.1250000000000000833, 0.3499999999999999778, -1.042502088928370490E-17 ) ) ;
#341 = EDGE_LOOP ( 'NONE', ( #797, #854, #1234, #6 ) ) ;
#342 = UNCERTAINTY_MEASURE_WITH_UNIT (LENGTH_MEASURE( 1.000000000000000082E-05 ), #614, 'distance_accuracy_value', 'NONE');
#343 =( NAMED_UNIT ( * ) SI_UNIT ( $, .STERADIAN. ) SOLID_ANGLE_UNIT ( ) );
#344 = VERTEX_POINT ( 'NONE', #417 ) ;
#345 =( LENGTH_UNIT ( ) NAMED_UNIT ( * ) SI_UNIT ( .MILLI., .METRE. ) );
#346 = VERTEX_POINT ( 'NONE', #1243 ) ;
#347 = DIRECTION ( 'NONE',  ( 0.000000000000000000, 0.000000000000000000, -1.000000000000000000 ) ) ;
#348 = EDGE_LOOP ( 'NONE', ( #187, #1041, #1279, #580 ) ) ;
#349 = SURFACE_STYLE_USAGE ( .BOTH. , #423 ) ;
#350 = DIRECTION ( 'NONE',  ( -0.000000000000000000, -1.000000000000000000, -0.000000000000000000 ) ) ;
#351 = ORIENTED_EDGE ( 'NONE', *, *, #1218, .T. ) ;
#352 = ADVANCED_FACE ( 'NONE', ( #843 ), #408, .F. ) ;
#353 = DIRECTION ( 'NONE',  ( 8.340016711426957754E-17, 0.000000000000000000, -1.000000000000000000 ) ) ;
#354 =( LENGTH_UNIT ( ) NAMED_UNIT ( * ) SI_UNIT ( .MILLI., .METRE. ) );
#355 = VERTEX_POINT ( 'NONE', #309 ) ;
#356 = CARTESIAN_POINT ( 'NONE',  ( -0.3749999999999999445, 0.3499999999999999778, 6.255012533570217699E-17 ) ) ;
#357 = VECTOR ( 'NONE', #279, 1000.000000000000000 ) ;
#358 = FACE_OUTER_BOUND ( 'NONE', #47, .T. ) ;
#359 = STYLED_ITEM ( 'NONE', ( #1280 ), #1127 ) ;
#360 = ORIENTED_EDGE ( 'NONE', *, *, #1213, .T. ) ;
#361 = ADVANCED_FACE ( 'NONE', ( #724 ), #1162, .F. ) ;
#362 = SURFACE_STYLE_USAGE ( .BOTH. , #1322 ) ;
#363 = COLOUR_RGB ( '',0.2509803921568627416, 0.2509803921568627416, 0.2509803921568627416 ) ;
#364 = DIRECTION ( 'NONE',  ( 1.000000000000000000, 0.000000000000000000, -8.340016711426960219E-17 ) ) ;
#365 = UNCERTAINTY_MEASURE_WITH_UNIT (LENGTH_MEASURE( 1.000000000000000082E-05 ), #874, 'distance_accuracy_value', 'NONE');
#366 = ORIENTED_EDGE ( 'NONE', *, *, #1274, .F. ) ;
#367 = CARTESIAN_POINT ( 'NONE',  ( 0.3750000000000000000, 0.3600000000000000422, 0.1625000000000000056 ) ) ;
#368 = FILL_AREA_STYLE ('',( #383 ) ) ;
#369 = CARTESIAN_POINT ( 'NONE',  ( -0.3749999999999999445, 0.3499999999999999778, -6.255012533570217699E-17 ) ) ;
#370 = PRESENTATION_STYLE_ASSIGNMENT (( #155 ) ) ;
#371 = ORIENTED_EDGE ( 'NONE', *, *, #1292, .T. ) ;
#372 = CARTESIAN_POINT ( 'NONE',  ( 0.000000000000000000, 0.3499999999999999778, 0.1625000000000000056 ) ) ;
#373 = COLOUR_RGB ( '',0.7921568627450980005, 0.8196078431372548767, 0.9333333333333333481 ) ;
#374 =( LENGTH_UNIT ( ) NAMED_UNIT ( * ) SI_UNIT ( .MILLI., .METRE. ) );
#375 = DIRECTION ( 'NONE',  ( 1.000000000000000000, -0.000000000000000000, 0.000000000000000000 ) ) ;
#376 = CARTESIAN_POINT ( 'NONE',  ( 0.000000000000000000, 0.3600000000000000422, -0.4500000000000000666 ) ) ;
#377 = VECTOR ( 'NONE', #1, 1000.000000000000000 ) ;
#378 = PRESENTATION_LAYER_ASSIGNMENT (  '', '', ( #321 ) ) ;
#379 = FILL_AREA_STYLE ('',( #1113 ) ) ;
#380 = ORIENTED_EDGE ( 'NONE', *, *, #393, .T. ) ;
#381 = VECTOR ( 'NONE', #114, 1000.000000000000000 ) ;
#382 = SURFACE_STYLE_USAGE ( .BOTH. , #270 ) ;
#383 = FILL_AREA_STYLE_COLOUR ( '', #490 ) ;
#384 = CARTESIAN_POINT ( 'NONE',  ( -0.6999999999999998446, -0.3499999999999999778, 0.5499999999999999334 ) ) ;
#385 = CARTESIAN_POINT ( 'NONE',  ( -0.3750000000000000000, 0.3499999999999999778, 0.4500000000000000666 ) ) ;
#386 = SURFACE_STYLE_FILL_AREA ( #1341 ) ;
#387 = EDGE_CURVE ( 'NONE', #760, #1077, #1179, .T. ) ;
#388 = ORIENTED_EDGE ( 'NONE', *, *, #1094, .T. ) ;
#389 = EDGE_CURVE ( 'NONE', #61, #519, #979, .T. ) ;
#390 = FACE_OUTER_BOUND ( 'NONE', #570, .T. ) ;
#391 = EDGE_CURVE ( 'NONE', #346, #1034, #956, .T. ) ;
#392 = DIRECTION ( 'NONE',  ( 1.000000000000000000, -0.000000000000000000, 0.000000000000000000 ) ) ;
#393 = EDGE_CURVE ( 'NONE', #193, #561, #853, .T. ) ;
#394 = VERTEX_POINT ( 'NONE', #551 ) ;
#395 = CARTESIAN_POINT ( 'NONE',  ( -0.3749999999999999445, 0.3600000000000000422, 0.1250000000000000555 ) ) ;
#396 = PRESENTATION_LAYER_ASSIGNMENT (  '', '', ( #888 ) ) ;
#397 = CARTESIAN_POINT ( 'NONE',  ( 0.000000000000000000, 0.3600000000000000422, -0.1625000000000000056 ) ) ;
#398 = AXIS2_PLACEMENT_3D ( 'NONE', #630, #522, #5 ) ;
#399 = ORIENTED_EDGE ( 'NONE', *, *, #310, .F. ) ;
#400 =( GEOMETRIC_REPRESENTATION_CONTEXT ( 3 ) GLOBAL_UNCERTAINTY_ASSIGNED_CONTEXT ( ( #342 ) ) GLOBAL_UNIT_ASSIGNED_CONTEXT ( ( #614, #837, #209 ) ) REPRESENTATION_CONTEXT ( 'NONE', 'WORKASPACE' ) );
#401 = FACE_OUTER_BOUND ( 'NONE', #1175, .T. ) ;
#402 = EDGE_CURVE ( 'NONE', #544, #1301, #12, .T. ) ;
#403 = STYLED_ITEM ( 'NONE', ( #1160 ), #1295 ) ;
#404 = FILL_AREA_STYLE ('',( #1263 ) ) ;
#405 = SURFACE_STYLE_USAGE ( .BOTH. , #572 ) ;
#406 = VECTOR ( 'NONE', #347, 1000.000000000000000 ) ;
#407 = SURFACE_STYLE_FILL_AREA ( #945 ) ;
#408 = PLANE ( 'NONE',  #256 ) ;
#409 = EDGE_CURVE ( 'NONE', #1371, #1204, #239, .T. ) ;
#410 = DIRECTION ( 'NONE',  ( 0.000000000000000000, 0.000000000000000000, -1.000000000000000000 ) ) ;
#411 = DIRECTION ( 'NONE',  ( -0.000000000000000000, -1.000000000000000000, -0.000000000000000000 ) ) ;
#412 = CARTESIAN_POINT ( 'NONE',  ( -0.1250000000000000000, 0.3600000000000000422, -0.4500000000000000666 ) ) ;
#413 = FILL_AREA_STYLE_COLOUR ( '', #687 ) ;
#414 = PLANE ( 'NONE',  #692 ) ;
#415 = VERTEX_POINT ( 'NONE', #1068 ) ;
#416 = LINE ( 'NONE', #944, #731 ) ;
#417 = CARTESIAN_POINT ( 'NONE',  ( -0.1249999999999999722, 0.3600000000000000422, -0.1250000000000000555 ) ) ;
#418 = COLOUR_RGB ( '',0.6470588235294117974, 0.5176470588235293491, 0.000000000000000000 ) ;
#419 = DIRECTION ( 'NONE',  ( 1.000000000000000000, 0.000000000000000000, 0.000000000000000000 ) ) ;
#420 = EDGE_LOOP ( 'NONE', ( #1166, #914, #822, #434 ) ) ;
#421 = COLOUR_RGB ( '',0.6470588235294117974, 0.5176470588235293491, 0.000000000000000000 ) ;
#422 = APPLICATION_PROTOCOL_DEFINITION ( 'draft international standard', 'automotive_design', 1998, #635 ) ;
#423 = SURFACE_SIDE_STYLE ('',( #333 ) ) ;
#424 = MECHANICAL_DESIGN_GEOMETRIC_PRESENTATION_REPRESENTATION (  '', ( #495 ), #718 ) ;
#425 = VERTEX_POINT ( 'NONE', #223 ) ;
#426 = STYLED_ITEM ( 'NONE', ( #858 ), #468 ) ;
#427 = PLANE ( 'NONE',  #134 ) ;
#428 = ORIENTED_EDGE ( 'NONE', *, *, #650, .T. ) ;
#429 = SURFACE_SIDE_STYLE ('',( #669 ) ) ;
#430 = LINE ( 'NONE', #882, #1251 ) ;
#431 = ORIENTED_EDGE ( 'NONE', *, *, #650, .F. ) ;
#432 = FACE_BOUND ( 'NONE', #953, .T. ) ;
#433 =( NAMED_UNIT ( * ) SI_UNIT ( $, .STERADIAN. ) SOLID_ANGLE_UNIT ( ) );
#434 = ORIENTED_EDGE ( 'NONE', *, *, #823, .F. ) ;
#435 = VECTOR ( 'NONE', #811, 1000.000000000000000 ) ;
#436 = FILL_AREA_STYLE_COLOUR ( '', #1252 ) ;
#437 = LINE ( 'NONE', #869, #467 ) ;
#438 = ORIENTED_EDGE ( 'NONE', *, *, #484, .T. ) ;
#439 = PRESENTATION_LAYER_ASSIGNMENT (  '', '', ( #1053 ) ) ;
#440 = SURFACE_STYLE_USAGE ( .BOTH. , #654 ) ;
#441 = AXIS2_PLACEMENT_3D ( 'NONE', #200, #1039, #213 ) ;
#442 = STYLED_ITEM ( 'NONE', ( #750 ), #1055 ) ;
#443 = UNCERTAINTY_MEASURE_WITH_UNIT (LENGTH_MEASURE( 1.000000000000000082E-05 ), #920, 'distance_accuracy_value', 'NONE');
#444 = SURFACE_STYLE_USAGE ( .BOTH. , #232 ) ;
#445 = MECHANICAL_DESIGN_GEOMETRIC_PRESENTATION_REPRESENTATION (  '', ( #578 ), #204 ) ;
#446 = VECTOR ( 'NONE', #1116, 1000.000000000000000 ) ;
#447 = SURFACE_STYLE_FILL_AREA ( #235 ) ;
#448 = ORIENTED_EDGE ( 'NONE', *, *, #638, .T. ) ;
#449 = CARTESIAN_POINT ( 'NONE',  ( 0.3750000000000000000, 0.3600000000000000422, 0.000000000000000000 ) ) ;
#450 = CARTESIAN_POINT ( 'NONE',  ( -0.1249999999999999722, 0.3499999999999999778, 1.042502088928369565E-17 ) ) ;
#451 = ORIENTED_EDGE ( 'NONE', *, *, #391, .T. ) ;
#452 = DIRECTION ( 'NONE',  ( 1.000000000000000000, -0.000000000000000000, 0.000000000000000000 ) ) ;
#453 = CARTESIAN_POINT ( 'NONE',  ( -0.3749999999999999445, 0.3600000000000000422, -6.255012533570217699E-17 ) ) ;
#454 = VERTEX_POINT ( 'NONE', #34 ) ;
#455 = EDGE_CURVE ( 'NONE', #584, #1024, #639, .T. ) ;
#456 = UNCERTAINTY_MEASURE_WITH_UNIT (LENGTH_MEASURE( 1.000000000000000082E-05 ), #374, 'distance_accuracy_value', 'NONE');
#457 = PRESENTATION_STYLE_ASSIGNMENT (( #877 ) ) ;
#458 = ORIENTED_EDGE ( 'NONE', *, *, #1083, .F. ) ;
#459 = VECTOR ( 'NONE', #916, 1000.000000000000000 ) ;
#460 = DIRECTION ( 'NONE',  ( 1.000000000000000000, -0.000000000000000000, 0.000000000000000000 ) ) ;
#461 = VECTOR ( 'NONE', #141, 1000.000000000000000 ) ;
#462 = DIRECTION ( 'NONE',  ( 0.000000000000000000, 0.000000000000000000, -1.000000000000000000 ) ) ;
#463 = CARTESIAN_POINT ( 'NONE',  ( -0.3749999999999999445, 0.3600000000000000422, 6.255012533570217699E-17 ) ) ;
#464 = PRESENTATION_LAYER_ASSIGNMENT (  '', '', ( #891 ) ) ;
#465 = CARTESIAN_POINT ( 'NONE',  ( 0.000000000000000000, 0.3499999999999999778, -0.4500000000000000666 ) ) ;
#466 = PRESENTATION_LAYER_ASSIGNMENT (  '', '', ( #848 ) ) ;
#467 = VECTOR ( 'NONE', #1297, 1000.000000000000000 ) ;
#468 = ADVANCED_FACE ( 'NONE', ( #662 ), #1186, .F. ) ;
#469 = CARTESIAN_POINT ( 'NONE',  ( -0.6999999999999998446, 0.3499999999999999778, 0.5499999999999999334 ) ) ;
#470 = STYLED_ITEM ( 'NONE', ( #212 ), #292 ) ;
#471 = VERTEX_POINT ( 'NONE', #1210 ) ;
#472 = CARTESIAN_POINT ( 'NONE',  ( 0.6999999999999999556, 0.3499999999999999778, 0.5499999999999999334 ) ) ;
#473 = DIRECTION ( 'NONE',  ( 1.000000000000000000, 0.000000000000000000, 0.000000000000000000 ) ) ;
#474 = MECHANICAL_DESIGN_GEOMETRIC_PRESENTATION_REPRESENTATION (  '', ( #792 ), #1255 ) ;
#475 = FILL_AREA_STYLE ('',( #911 ) ) ;
#476 = LINE ( 'NONE', #1333, #138 ) ;
#477 = FACE_OUTER_BOUND ( 'NONE', #763, .T. ) ;
#478 = ORIENTED_EDGE ( 'NONE', *, *, #531, .T. ) ;
#479 = LINE ( 'NONE', #372, #844 ) ;
#480 = FILL_AREA_STYLE ('',( #1331 ) ) ;
#481 = SURFACE_SIDE_STYLE ('',( #924 ) ) ;
#482 = LINE ( 'NONE', #1339, #205 ) ;
#483 = DIRECTION ( 'NONE',  ( -0.000000000000000000, -1.000000000000000000, -0.000000000000000000 ) ) ;
#484 = EDGE_CURVE ( 'NONE', #1221, #637, #702, .T. ) ;
#485 = EDGE_LOOP ( 'NONE', ( #1002, #307, #524, #318 ) ) ;
#486 = CARTESIAN_POINT ( 'NONE',  ( 0.000000000000000000, 0.3499999999999999778, 0.000000000000000000 ) ) ;
#487 = STYLED_ITEM ( 'NONE', ( #818 ), #629 ) ;
#488 = LINE ( 'NONE', #678, #1145 ) ;
#489 = UNCERTAINTY_MEASURE_WITH_UNIT (LENGTH_MEASURE( 1.000000000000000082E-05 ), #123, 'distance_accuracy_value', 'NONE');
#490 = COLOUR_RGB ( '',0.6470588235294117974, 0.5176470588235293491, 0.000000000000000000 ) ;
#491 = PLANE ( 'NONE',  #512 ) ;
#492 = ORIENTED_EDGE ( 'NONE', *, *, #521, .F. ) ;
#493 = EDGE_CURVE ( 'NONE', #149, #1038, #904, .T. ) ;
#494 = SURFACE_STYLE_FILL_AREA ( #262 ) ;
#495 = STYLED_ITEM ( 'NONE', ( #1111 ), #96 ) ;
#496 = SURFACE_SIDE_STYLE ('',( #794 ) ) ;
#497 = FILL_AREA_STYLE ('',( #78 ) ) ;
#498 = FILL_AREA_STYLE_COLOUR ( '', #1366 ) ;
#499 = VECTOR ( 'NONE', #20, 1000.000000000000000 ) ;
#500 = PRESENTATION_LAYER_ASSIGNMENT (  '', '', ( #403 ) ) ;
#501 = SURFACE_SIDE_STYLE ('',( #85 ) ) ;
#502 = ORIENTED_EDGE ( 'NONE', *, *, #567, .T. ) ;
#503 = FILL_AREA_STYLE ('',( #169 ) ) ;
#504 = DIRECTION ( 'NONE',  ( -8.340016711426960219E-17, 0.000000000000000000, 1.000000000000000000 ) ) ;
#505 = ORIENTED_EDGE ( 'NONE', *, *, #638, .F. ) ;
#506 = EDGE_LOOP ( 'NONE', ( #97, #1336, #492, #351 ) ) ;
#507 = CARTESIAN_POINT ( 'NONE',  ( -0.1249999999999999722, 0.3600000000000000422, -1.042502088928369565E-17 ) ) ;
#508 =( LENGTH_UNIT ( ) NAMED_UNIT ( * ) SI_UNIT ( .MILLI., .METRE. ) );
#509 = FACE_OUTER_BOUND ( 'NONE', #1367, .T. ) ;
#510 = VECTOR ( 'NONE', #558, 1000.000000000000000 ) ;
#511 = VERTEX_POINT ( 'NONE', #991 ) ;
#512 = AXIS2_PLACEMENT_3D ( 'NONE', #198, #833, #517 ) ;
#513 = CARTESIAN_POINT ( 'NONE',  ( 0.1250000000000000833, 0.3600000000000000422, -1.042502088928370490E-17 ) ) ;
#514 = CARTESIAN_POINT ( 'NONE',  ( -0.6999999999999999556, 0.3499999999999999778, -0.5500000000000000444 ) ) ;
#515 = DIRECTION ( 'NONE',  ( 0.000000000000000000, 0.000000000000000000, -1.000000000000000000 ) ) ;
#516 = UNCERTAINTY_MEASURE_WITH_UNIT (LENGTH_MEASURE( 1.000000000000000082E-05 ), #354, 'distance_accuracy_value', 'NONE');
#517 = DIRECTION ( 'NONE',  ( -1.000000000000000000, 0.000000000000000000, -0.000000000000000000 ) ) ;
#518 =( NAMED_UNIT ( * ) PLANE_ANGLE_UNIT ( ) SI_UNIT ( $, .RADIAN. ) );
#519 = VERTEX_POINT ( 'NONE', #385 ) ;
#520 = SURFACE_STYLE_USAGE ( .BOTH. , #1037 ) ;
#521 = EDGE_CURVE ( 'NONE', #344, #55, #1324, .T. ) ;
#522 = DIRECTION ( 'NONE',  ( 0.000000000000000000, 0.000000000000000000, -1.000000000000000000 ) ) ;
#523 = DIRECTION ( 'NONE',  ( 1.000000000000000000, -0.000000000000000000, 0.000000000000000000 ) ) ;
#524 = ORIENTED_EDGE ( 'NONE', *, *, #409, .F. ) ;
#525 = ADVANCED_BREP_SHAPE_REPRESENTATION ( 'AFS14A04-1575.42-T3', ( #1127, #298 ), #842 ) ;
#526 = CARTESIAN_POINT ( 'NONE',  ( 0.6999999999999999556, -0.3499999999999999778, -0.5500000000000000444 ) ) ;
#527 = EDGE_CURVE ( 'NONE', #985, #1221, #999, .T. ) ;
#528 = PRODUCT_DEFINITION ( 'UNKNOWN', '', #593, #264 ) ;
#529 = DIRECTION ( 'NONE',  ( -8.340016711426960219E-17, 0.000000000000000000, -1.000000000000000000 ) ) ;
#530 = CARTESIAN_POINT ( 'NONE',  ( 0.000000000000000000, 0.3499999999999999778, -0.1625000000000000056 ) ) ;
#531 = EDGE_CURVE ( 'NONE', #679, #1092, #1216, .T. ) ;
#532 = ORIENTED_EDGE ( 'NONE', *, *, #249, .F. ) ;
#533 = COLOUR_RGB ( '',0.6470588235294117974, 0.5176470588235293491, 0.000000000000000000 ) ;
#534 = VECTOR ( 'NONE', #1369, 1000.000000000000000 ) ;
#535 = CARTESIAN_POINT ( 'NONE',  ( 0.000000000000000000, 0.3600000000000000422, 0.1250000000000000555 ) ) ;
#536 =( NAMED_UNIT ( * ) PLANE_ANGLE_UNIT ( ) SI_UNIT ( $, .RADIAN. ) );
#537 = EDGE_LOOP ( 'NONE', ( #752, #592, #603, #923 ) ) ;
#538 = SURFACE_SIDE_STYLE ('',( #1090 ) ) ;
#539 = ORIENTED_EDGE ( 'NONE', *, *, #726, .F. ) ;
#540 = CARTESIAN_POINT ( 'NONE',  ( 0.6250000000000002220, 0.3600000000000000422, 0.000000000000000000 ) ) ;
#541 = PRESENTATION_STYLE_ASSIGNMENT (( #444 ) ) ;
#542 = CARTESIAN_POINT ( 'NONE',  ( -0.6250000000000000000, 0.3499999999999999778, -0.4500000000000000666 ) ) ;
#543 =( NAMED_UNIT ( * ) SI_UNIT ( $, .STERADIAN. ) SOLID_ANGLE_UNIT ( ) );
#544 = VERTEX_POINT ( 'NONE', #1135 ) ;
#545 = LINE ( 'NONE', #238, #276 ) ;
#546 = DIRECTION ( 'NONE',  ( 0.000000000000000000, 0.000000000000000000, -1.000000000000000000 ) ) ;
#547 = ORIENTED_EDGE ( 'NONE', *, *, #997, .T. ) ;
#548 = COLOUR_RGB ( '',0.6470588235294117974, 0.5176470588235293491, 0.000000000000000000 ) ;
#549 = SURFACE_STYLE_USAGE ( .BOTH. , #40 ) ;
#550 = EDGE_LOOP ( 'NONE', ( #940, #532, #676, #1011 ) ) ;
#551 = CARTESIAN_POINT ( 'NONE',  ( -0.3749999999999999445, 0.3499999999999999778, 0.1250000000000000555 ) ) ;
#552 = STYLED_ITEM ( 'NONE', ( #370 ), #1089 ) ;
#553 = VECTOR ( 'NONE', #411, 1000.000000000000000 ) ;
#554 =( GEOMETRIC_REPRESENTATION_CONTEXT ( 3 ) GLOBAL_UNCERTAINTY_ASSIGNED_CONTEXT ( ( #516 ) ) GLOBAL_UNIT_ASSIGNED_CONTEXT ( ( #354, #1099, #23 ) ) REPRESENTATION_CONTEXT ( 'NONE', 'WORKASPACE' ) );
#555 =( GEOMETRIC_REPRESENTATION_CONTEXT ( 3 ) GLOBAL_UNCERTAINTY_ASSIGNED_CONTEXT ( ( #967 ) ) GLOBAL_UNIT_ASSIGNED_CONTEXT ( ( #345, #1192, #433 ) ) REPRESENTATION_CONTEXT ( 'NONE', 'WORKASPACE' ) );
#556 = PRESENTATION_STYLE_ASSIGNMENT (( #776 ) ) ;
#557 = FACE_OUTER_BOUND ( 'NONE', #329, .T. ) ;
#558 = DIRECTION ( 'NONE',  ( 1.000000000000000000, -0.000000000000000000, 0.000000000000000000 ) ) ;
#559 = DIRECTION ( 'NONE',  ( -8.340016711426960219E-17, 0.000000000000000000, -1.000000000000000000 ) ) ;
#560 = ORIENTED_EDGE ( 'NONE', *, *, #1308, .T. ) ;
#561 = VERTEX_POINT ( 'NONE', #288 ) ;
#562 = CARTESIAN_POINT ( 'NONE',  ( 0.1250000000000000555, 0.3600000000000000422, -0.4500000000000000666 ) ) ;
#563 =( NAMED_UNIT ( * ) SI_UNIT ( $, .STERADIAN. ) SOLID_ANGLE_UNIT ( ) );
#564 = CARTESIAN_POINT ( 'NONE',  ( 0.3750000000000000000, 0.3499999999999999778, -0.1625000000000000056 ) ) ;
#565 = PLANE ( 'NONE',  #315 ) ;
#566 = CARTESIAN_POINT ( 'NONE',  ( -0.6250000000000000000, 0.3499999999999999778, 0.4500000000000000666 ) ) ;
#567 = EDGE_CURVE ( 'NONE', #454, #561, #1236, .T. ) ;
#568 =( GEOMETRIC_REPRESENTATION_CONTEXT ( 3 ) GLOBAL_UNCERTAINTY_ASSIGNED_CONTEXT ( ( #147 ) ) GLOBAL_UNIT_ASSIGNED_CONTEXT ( ( #70, #1014, #1223 ) ) REPRESENTATION_CONTEXT ( 'NONE', 'WORKASPACE' ) );
#569 = EDGE_CURVE ( 'NONE', #1221, #519, #697, .T. ) ;
#570 = EDGE_LOOP ( 'NONE', ( #778, #220, #39, #717 ) ) ;
#571 = PLANE ( 'NONE',  #1267 ) ;
#572 = SURFACE_SIDE_STYLE ('',( #696 ) ) ;
#573 = FACE_BOUND ( 'NONE', #341, .T. ) ;
#574 = CARTESIAN_POINT ( 'NONE',  ( -0.6999999999999998446, 0.3499999999999999778, 0.5499999999999999334 ) ) ;
#575 = PRESENTATION_LAYER_ASSIGNMENT (  '', '', ( #1181 ) ) ;
#576 = CARTESIAN_POINT ( 'NONE',  ( -0.3750000000000000000, 0.3600000000000000422, -0.4500000000000000666 ) ) ;
#577 = ADVANCED_FACE ( 'NONE', ( #358 ), #565, .T. ) ;
#578 = STYLED_ITEM ( 'NONE', ( #151 ), #1368 ) ;
#579 = VECTOR ( 'NONE', #1022, 1000.000000000000000 ) ;
#580 = ORIENTED_EDGE ( 'NONE', *, *, #173, .T. ) ;
#581 = FILL_AREA_STYLE ('',( #1222 ) ) ;
#582 =( LENGTH_UNIT ( ) NAMED_UNIT ( * ) SI_UNIT ( .MILLI., .METRE. ) );
#583 =( NAMED_UNIT ( * ) PLANE_ANGLE_UNIT ( ) SI_UNIT ( $, .RADIAN. ) );
#584 = VERTEX_POINT ( 'NONE', #574 ) ;
#585 = DIRECTION ( 'NONE',  ( -0.000000000000000000, -1.000000000000000000, -0.000000000000000000 ) ) ;
#586 = FILL_AREA_STYLE_COLOUR ( '', #980 ) ;
#587 =( LENGTH_UNIT ( ) NAMED_UNIT ( * ) SI_UNIT ( .MILLI., .METRE. ) );
#588 = DIRECTION ( 'NONE',  ( -1.000000000000000000, 0.000000000000000000, 0.000000000000000000 ) ) ;
#589 = DIRECTION ( 'NONE',  ( 1.000000000000000000, -0.000000000000000000, 0.000000000000000000 ) ) ;
#590 = EDGE_CURVE ( 'NONE', #195, #1038, #49, .T. ) ;
#591 = LINE ( 'NONE', #1224, #1325 ) ;
#592 = ORIENTED_EDGE ( 'NONE', *, *, #81, .F. ) ;
#593 = PRODUCT_DEFINITION_FORMATION_WITH_SPECIFIED_SOURCE ( 'ANY', '', #237, .NOT_KNOWN. ) ;
#594 = LINE ( 'NONE', #1139, #896 ) ;
#595 = CARTESIAN_POINT ( 'NONE',  ( -0.6250000000000000000, 0.3499999999999999778, 0.000000000000000000 ) ) ;
#596 = EDGE_CURVE ( 'NONE', #1038, #140, #272, .T. ) ;
#597 = CARTESIAN_POINT ( 'NONE',  ( 0.1250000000000000833, 0.3600000000000000422, 0.1250000000000000555 ) ) ;
#598 = STYLED_ITEM ( 'NONE', ( #1262 ), #1245 ) ;
#599 = ORIENTED_EDGE ( 'NONE', *, *, #1351, .T. ) ;
#600 = EDGE_CURVE ( 'NONE', #949, #394, #482, .T. ) ;
#601 = MECHANICAL_DESIGN_GEOMETRIC_PRESENTATION_REPRESENTATION (  '', ( #1209 ), #323 ) ;
#602 = CARTESIAN_POINT ( 'NONE',  ( -0.6250000000000000000, 0.3499999999999999778, 0.1250000000000000555 ) ) ;
#603 = ORIENTED_EDGE ( 'NONE', *, *, #633, .F. ) ;
#604 = LINE ( 'NONE', #835, #1046 ) ;
#605 = VECTOR ( 'NONE', #215, 1000.000000000000000 ) ;
#606 = PRESENTATION_STYLE_ASSIGNMENT (( #613 ) ) ;
#607 = EDGE_LOOP ( 'NONE', ( #360, #248, #857, #814 ) ) ;
#608 = SURFACE_STYLE_USAGE ( .BOTH. , #838 ) ;
#609 = LINE ( 'NONE', #514, #553 ) ;
#610 = EDGE_LOOP ( 'NONE', ( #1247, #1269, #783, #1147 ) ) ;
#611 = DIRECTION ( 'NONE',  ( -0.000000000000000000, -1.000000000000000000, -0.000000000000000000 ) ) ;
#612 = EDGE_CURVE ( 'NONE', #1132, #1371, #806, .T. ) ;
#613 = SURFACE_STYLE_USAGE ( .BOTH. , #621 ) ;
#614 =( LENGTH_UNIT ( ) NAMED_UNIT ( * ) SI_UNIT ( .MILLI., .METRE. ) );
#615 = ORIENTED_EDGE ( 'NONE', *, *, #596, .F. ) ;
#616 = CARTESIAN_POINT ( 'NONE',  ( -0.6250000000000000000, 0.3600000000000000422, 0.4500000000000000666 ) ) ;
#617 = LINE ( 'NONE', #1049, #1008 ) ;
#618 = DIRECTION ( 'NONE',  ( 0.000000000000000000, -0.000000000000000000, 1.000000000000000000 ) ) ;
#619 =( NAMED_UNIT ( * ) SI_UNIT ( $, .STERADIAN. ) SOLID_ANGLE_UNIT ( ) );
#620 =( GEOMETRIC_REPRESENTATION_CONTEXT ( 3 ) GLOBAL_UNCERTAINTY_ASSIGNED_CONTEXT ( ( #365 ) ) GLOBAL_UNIT_ASSIGNED_CONTEXT ( ( #874, #655, #126 ) ) REPRESENTATION_CONTEXT ( 'NONE', 'WORKASPACE' ) );
#621 = SURFACE_SIDE_STYLE ('',( #94 ) ) ;
#622 =( GEOMETRIC_REPRESENTATION_CONTEXT ( 3 ) GLOBAL_UNCERTAINTY_ASSIGNED_CONTEXT ( ( #1334 ) ) GLOBAL_UNIT_ASSIGNED_CONTEXT ( ( #955, #964, #42 ) ) REPRESENTATION_CONTEXT ( 'NONE', 'WORKASPACE' ) );
#623 = PRESENTATION_LAYER_ASSIGNMENT (  '', '', ( #1372 ) ) ;
#624 = VECTOR ( 'NONE', #732, 1000.000000000000000 ) ;
#625 = SURFACE_SIDE_STYLE ('',( #951 ) ) ;
#626 = PRESENTATION_LAYER_ASSIGNMENT (  '', '', ( #1209 ) ) ;
#627 = FILL_AREA_STYLE ('',( #208 ) ) ;
#628 = STYLED_ITEM ( 'NONE', ( #1203 ), #1178 ) ;
#629 = ADVANCED_FACE ( 'NONE', ( #1155 ), #1257, .T. ) ;
#630 = CARTESIAN_POINT ( 'NONE',  ( 0.000000000000000000, 0.3600000000000000422, 0.4500000000000000666 ) ) ;
#631 = CARTESIAN_POINT ( 'NONE',  ( 0.000000000000000000, 0.3600000000000000422, 0.000000000000000000 ) ) ;
#632 = ORIENTED_EDGE ( 'NONE', *, *, #1304, .F. ) ;
#633 = EDGE_CURVE ( 'NONE', #1132, #793, #604, .T. ) ;
#634 =( LENGTH_UNIT ( ) NAMED_UNIT ( * ) SI_UNIT ( .MILLI., .METRE. ) );
#635 = APPLICATION_CONTEXT ( 'automotive_design' ) ;
#636 = DIRECTION ( 'NONE',  ( 1.000000000000000000, -0.000000000000000000, 0.000000000000000000 ) ) ;
#637 = VERTEX_POINT ( 'NONE', #395 ) ;
#638 = EDGE_CURVE ( 'NONE', #809, #195, #1140, .T. ) ;
#639 = LINE ( 'NONE', #648, #1276 ) ;
#640 = FILL_AREA_STYLE_COLOUR ( '', #303 ) ;
#641 = STYLED_ITEM ( 'NONE', ( #1258 ), #902 ) ;
#642 = PLANE ( 'NONE',  #324 ) ;
#643 = MECHANICAL_DESIGN_GEOMETRIC_PRESENTATION_REPRESENTATION (  '', ( #1372 ), #733 ) ;
#644 = PRESENTATION_STYLE_ASSIGNMENT (( #129 ) ) ;
#645 = ORIENTED_EDGE ( 'NONE', *, *, #1308, .F. ) ;
#646 =( GEOMETRIC_REPRESENTATION_CONTEXT ( 3 ) GLOBAL_UNCERTAINTY_ASSIGNED_CONTEXT ( ( #259 ) ) GLOBAL_UNIT_ASSIGNED_CONTEXT ( ( #1075, #984, #124 ) ) REPRESENTATION_CONTEXT ( 'NONE', 'WORKASPACE' ) );
#647 = MECHANICAL_DESIGN_GEOMETRIC_PRESENTATION_REPRESENTATION (  '', ( #598 ), #958 ) ;
#648 = CARTESIAN_POINT ( 'NONE',  ( -0.6999999999999998446, 0.3499999999999999778, 0.5499999999999999334 ) ) ;
#649 = SURFACE_STYLE_FILL_AREA ( #1272 ) ;
#650 = EDGE_CURVE ( 'NONE', #793, #862, #416, .T. ) ;
#651 = FACE_OUTER_BOUND ( 'NONE', #1281, .T. ) ;
#652 = COLOUR_RGB ( '',0.6470588235294117974, 0.5176470588235293491, 0.000000000000000000 ) ;
#653 = EDGE_LOOP ( 'NONE', ( #926, #254, #883, #225 ) ) ;
#654 = SURFACE_SIDE_STYLE ('',( #33 ) ) ;
#655 =( NAMED_UNIT ( * ) PLANE_ANGLE_UNIT ( ) SI_UNIT ( $, .RADIAN. ) );
#656 = CARTESIAN_POINT ( 'NONE',  ( 0.3750000000000000000, 0.3600000000000000422, -0.1625000000000000056 ) ) ;
#657 = ORIENTED_EDGE ( 'NONE', *, *, #521, .T. ) ;
#658 = APPLICATION_CONTEXT ( 'automotive_design' ) ;
#659 = SURFACE_SIDE_STYLE ('',( #234 ) ) ;
#660 = ORIENTED_EDGE ( 'NONE', *, *, #799, .F. ) ;
#661 =( NAMED_UNIT ( * ) PLANE_ANGLE_UNIT ( ) SI_UNIT ( $, .RADIAN. ) );
#662 = FACE_OUTER_BOUND ( 'NONE', #236, .T. ) ;
#663 = FILL_AREA_STYLE_COLOUR ( '', #847 ) ;
#664 = DIRECTION ( 'NONE',  ( -1.000000000000000000, 0.000000000000000000, -0.000000000000000000 ) ) ;
#665 = FILL_AREA_STYLE_COLOUR ( '', #164 ) ;
#666 = EDGE_LOOP ( 'NONE', ( #1238, #199, #889, #803 ) ) ;
#667 = AXIS2_PLACEMENT_3D ( 'NONE', #540, #152, #462 ) ;
#668 = VECTOR ( 'NONE', #906, 1000.000000000000000 ) ;
#669 = SURFACE_STYLE_FILL_AREA ( #231 ) ;
#670 = AXIS2_PLACEMENT_3D ( 'NONE', #1020, #588, #1360 ) ;
#671 =( NAMED_UNIT ( * ) PLANE_ANGLE_UNIT ( ) SI_UNIT ( $, .RADIAN. ) );
#672 = ORIENTED_EDGE ( 'NONE', *, *, #704, .F. ) ;
#673 = MECHANICAL_DESIGN_GEOMETRIC_PRESENTATION_REPRESENTATION (  '', ( #628 ), #1254 ) ;
#674 = VECTOR ( 'NONE', #1299, 1000.000000000000000 ) ;
#675 = FILL_AREA_STYLE ('',( #665 ) ) ;
#676 = ORIENTED_EDGE ( 'NONE', *, *, #726, .T. ) ;
#677 = DIRECTION ( 'NONE',  ( 0.000000000000000000, 1.000000000000000000, -0.000000000000000000 ) ) ;
#678 = CARTESIAN_POINT ( 'NONE',  ( 0.6999999999999999556, 0.3499999999999999778, -0.5500000000000000444 ) ) ;
#679 = VERTEX_POINT ( 'NONE', #825 ) ;
#680 = DIRECTION ( 'NONE',  ( -0.000000000000000000, -1.000000000000000000, -0.000000000000000000 ) ) ;
#681 = LINE ( 'NONE', #597, #15 ) ;
#682 = ORIENTED_EDGE ( 'NONE', *, *, #27, .T. ) ;
#683 = VECTOR ( 'NONE', #460, 1000.000000000000000 ) ;
#684 = SURFACE_SIDE_STYLE ('',( #780 ) ) ;
#685 = DIRECTION ( 'NONE',  ( 0.000000000000000000, 0.000000000000000000, 1.000000000000000000 ) ) ;
#686 = CARTESIAN_POINT ( 'NONE',  ( -0.3750000000000000000, 0.3600000000000000422, 0.4500000000000000666 ) ) ;
#687 = COLOUR_RGB ( '',0.6470588235294117974, 0.5176470588235293491, 0.000000000000000000 ) ;
#688 =( NAMED_UNIT ( * ) PLANE_ANGLE_UNIT ( ) SI_UNIT ( $, .RADIAN. ) );
#689 =( GEOMETRIC_REPRESENTATION_CONTEXT ( 3 ) GLOBAL_UNCERTAINTY_ASSIGNED_CONTEXT ( ( #791 ) ) GLOBAL_UNIT_ASSIGNED_CONTEXT ( ( #1057, #738, #727 ) ) REPRESENTATION_CONTEXT ( 'NONE', 'WORKASPACE' ) );
#690 = VECTOR ( 'NONE', #981, 1000.000000000000000 ) ;
#691 = ADVANCED_FACE ( 'NONE', ( #1161 ), #729, .F. ) ;
#692 = AXIS2_PLACEMENT_3D ( 'NONE', #723, #839, #1063 ) ;
#693 =( NAMED_UNIT ( * ) PLANE_ANGLE_UNIT ( ) SI_UNIT ( $, .RADIAN. ) );
#694 = ORIENTED_EDGE ( 'NONE', *, *, #527, .T. ) ;
#695 = CARTESIAN_POINT ( 'NONE',  ( 0.6250000000000002220, 0.3600000000000000422, 0.1625000000000000056 ) ) ;
#696 = SURFACE_STYLE_FILL_AREA ( #280 ) ;
#697 = LINE ( 'NONE', #686, #1246 ) ;
#698 = DIRECTION ( 'NONE',  ( 9.856383386231860060E-17, 0.000000000000000000, 1.000000000000000000 ) ) ;
#699 = UNCERTAINTY_MEASURE_WITH_UNIT (LENGTH_MEASURE( 1.000000000000000082E-05 ), #930, 'distance_accuracy_value', 'NONE');
#700 = ORIENTED_EDGE ( 'NONE', *, *, #161, .T. ) ;
#701 = SURFACE_STYLE_USAGE ( .BOTH. , #1229 ) ;
#702 = LINE ( 'NONE', #453, #218 ) ;
#703 = SURFACE_STYLE_USAGE ( .BOTH. , #266 ) ;
#704 = EDGE_CURVE ( 'NONE', #1342, #949, #101, .T. ) ;
#705 = LINE ( 'NONE', #224, #77 ) ;
#706 = CARTESIAN_POINT ( 'NONE',  ( 0.6250000000000002220, 0.3499999999999999778, -0.1625000000000000056 ) ) ;
#707 = ORIENTED_EDGE ( 'NONE', *, *, #1016, .T. ) ;
#708 = STYLED_ITEM ( 'NONE', ( #1362 ), #1376 ) ;
#709 = FACE_BOUND ( 'NONE', #420, .T. ) ;
#710 = MECHANICAL_DESIGN_GEOMETRIC_PRESENTATION_REPRESENTATION (  '', ( #1316 ), #568 ) ;
#711 =( LENGTH_UNIT ( ) NAMED_UNIT ( * ) SI_UNIT ( .MILLI., .METRE. ) );
#712 = DIRECTION ( 'NONE',  ( -1.000000000000000000, 0.000000000000000000, -0.000000000000000000 ) ) ;
#713 = STYLED_ITEM ( 'NONE', ( #1042 ), #691 ) ;
#714 = FILL_AREA_STYLE ('',( #820 ) ) ;
#715 = COLOUR_RGB ( '',0.2509803921568627416, 0.2509803921568627416, 0.2509803921568627416 ) ;
#716 = COLOUR_RGB ( '',0.6470588235294117974, 0.5176470588235293491, 0.000000000000000000 ) ;
#717 = ORIENTED_EDGE ( 'NONE', *, *, #704, .T. ) ;
#718 =( GEOMETRIC_REPRESENTATION_CONTEXT ( 3 ) GLOBAL_UNCERTAINTY_ASSIGNED_CONTEXT ( ( #52 ) ) GLOBAL_UNIT_ASSIGNED_CONTEXT ( ( #1232, #688, #172 ) ) REPRESENTATION_CONTEXT ( 'NONE', 'WORKASPACE' ) );
#719 =( GEOMETRIC_REPRESENTATION_CONTEXT ( 3 ) GLOBAL_UNCERTAINTY_ASSIGNED_CONTEXT ( ( #1233 ) ) GLOBAL_UNIT_ASSIGNED_CONTEXT ( ( #8, #197, #1364 ) ) REPRESENTATION_CONTEXT ( 'NONE', 'WORKASPACE' ) );
#720 = EDGE_CURVE ( 'NONE', #24, #425, #184, .T. ) ;
#721 = SURFACE_STYLE_USAGE ( .BOTH. , #1150 ) ;
#722 = EDGE_LOOP ( 'NONE', ( #700, #1191, #970, #130 ) ) ;
#723 = CARTESIAN_POINT ( 'NONE',  ( -0.3749999999999999445, 0.3600000000000000422, 6.255012533570217699E-17 ) ) ;
#724 = FACE_OUTER_BOUND ( 'NONE', #537, .T. ) ;
#725 = UNCERTAINTY_MEASURE_WITH_UNIT (LENGTH_MEASURE( 1.000000000000000082E-05 ), #777, 'distance_accuracy_value', 'NONE');
#726 = EDGE_CURVE ( 'NONE', #335, #1358, #1108, .T. ) ;
#727 =( NAMED_UNIT ( * ) SI_UNIT ( $, .STERADIAN. ) SOLID_ANGLE_UNIT ( ) );
#728 = DIRECTION ( 'NONE',  ( 8.340016711426957754E-17, 0.000000000000000000, -1.000000000000000000 ) ) ;
#729 = PLANE ( 'NONE',  #1067 ) ;
#730 =( GEOMETRIC_REPRESENTATION_CONTEXT ( 3 ) GLOBAL_UNCERTAINTY_ASSIGNED_CONTEXT ( ( #1187 ) ) GLOBAL_UNIT_ASSIGNED_CONTEXT ( ( #582, #986, #563 ) ) REPRESENTATION_CONTEXT ( 'NONE', 'WORKASPACE' ) );
#731 = VECTOR ( 'NONE', #312, 1000.000000000000000 ) ;
#732 = DIRECTION ( 'NONE',  ( -0.000000000000000000, -1.000000000000000000, -0.000000000000000000 ) ) ;
#733 =( GEOMETRIC_REPRESENTATION_CONTEXT ( 3 ) GLOBAL_UNCERTAINTY_ASSIGNED_CONTEXT ( ( #993 ) ) GLOBAL_UNIT_ASSIGNED_CONTEXT ( ( #587, #583, #810 ) ) REPRESENTATION_CONTEXT ( 'NONE', 'WORKASPACE' ) );
#734 = COLOUR_RGB ( '',0.7921568627450980005, 0.8196078431372548767, 0.9333333333333333481 ) ;
#735 = STYLED_ITEM ( 'NONE', ( #556 ), #1032 ) ;
#736 = MECHANICAL_DESIGN_GEOMETRIC_PRESENTATION_REPRESENTATION (  '', ( #321 ), #646 ) ;
#737 = VECTOR ( 'NONE', #636, 1000.000000000000000 ) ;
#738 =( NAMED_UNIT ( * ) PLANE_ANGLE_UNIT ( ) SI_UNIT ( $, .RADIAN. ) );
#739 = ORIENTED_EDGE ( 'NONE', *, *, #1286, .T. ) ;
#740 = DIRECTION ( 'NONE',  ( 1.000000000000000000, -0.000000000000000000, 0.000000000000000000 ) ) ;
#741 = EDGE_CURVE ( 'NONE', #637, #394, #990, .T. ) ;
#742 = CLOSED_SHELL ( 'NONE', ( #352, #1158, #1178, #1055, #943, #691, #1295, #96, #902, #1330, #821, #1044, #1368, #468, #1315, #946, #931, #292, #361, #22, #577, #1169, #1089, #1032, #971, #1245, #1171, #959, #1376, #629, #975 ) ) ;
#743 = FILL_AREA_STYLE_COLOUR ( '', #418 ) ;
#744 = VECTOR ( 'NONE', #1293, 1000.000000000000000 ) ;
#745 = FILL_AREA_STYLE_COLOUR ( '', #899 ) ;
#746 = PRESENTATION_STYLE_ASSIGNMENT (( #1153 ) ) ;
#747 = CARTESIAN_POINT ( 'NONE',  ( 0.000000000000000000, 0.3600000000000000422, 0.1250000000000000555 ) ) ;
#748 = ORIENTED_EDGE ( 'NONE', *, *, #1213, .F. ) ;
#749 =( NAMED_UNIT ( * ) SI_UNIT ( $, .STERADIAN. ) SOLID_ANGLE_UNIT ( ) );
#750 = PRESENTATION_STYLE_ASSIGNMENT (( #855 ) ) ;
#751 = DIRECTION ( 'NONE',  ( 1.000000000000000000, -0.000000000000000000, 0.000000000000000000 ) ) ;
#752 = ORIENTED_EDGE ( 'NONE', *, *, #409, .T. ) ;
#753 =( NAMED_UNIT ( * ) SI_UNIT ( $, .STERADIAN. ) SOLID_ANGLE_UNIT ( ) );
#754 = DIRECTION ( 'NONE',  ( -0.000000000000000000, -1.000000000000000000, -0.000000000000000000 ) ) ;
#755 = DIRECTION ( 'NONE',  ( 0.000000000000000000, 0.000000000000000000, -1.000000000000000000 ) ) ;
#756 = PRESENTATION_STYLE_ASSIGNMENT (( #349 ) ) ;
#757 = UNCERTAINTY_MEASURE_WITH_UNIT (LENGTH_MEASURE( 1.000000000000000082E-05 ), #296, 'distance_accuracy_value', 'NONE');
#758 = PLANE ( 'NONE',  #895 ) ;
#759 = VECTOR ( 'NONE', #585, 1000.000000000000000 ) ;
#760 = VERTEX_POINT ( 'NONE', #890 ) ;
#761 = MECHANICAL_DESIGN_GEOMETRIC_PRESENTATION_REPRESENTATION (  '', ( #1181 ), #163 ) ;
#762 = FACE_OUTER_BOUND ( 'NONE', #285, .T. ) ;
#763 = EDGE_LOOP ( 'NONE', ( #1045, #660, #878, #451 ) ) ;
#764 = AXIS2_PLACEMENT_3D ( 'NONE', #1309, #330, #242 ) ;
#765 = FILL_AREA_STYLE_COLOUR ( '', #373 ) ;
#766 = AXIS2_PLACEMENT_3D ( 'NONE', #976, #137, #529 ) ;
#767 = STYLED_ITEM ( 'NONE', ( #457 ), #1330 ) ;
#768 = EDGE_CURVE ( 'NONE', #511, #1059, #1329, .T. ) ;
#769 = PRESENTATION_LAYER_ASSIGNMENT (  '', '', ( #1033 ) ) ;
#770 = CARTESIAN_POINT ( 'NONE',  ( -0.1249999999999999722, 0.3600000000000000422, -1.042502088928369565E-17 ) ) ;
#771 = LINE ( 'NONE', #1188, #226 ) ;
#772 = SURFACE_SIDE_STYLE ('',( #447 ) ) ;
#773 = ORIENTED_EDGE ( 'NONE', *, *, #1274, .T. ) ;
#774 = CARTESIAN_POINT ( 'NONE',  ( 0.000000000000000000, 0.3499999999999999778, 0.4500000000000000666 ) ) ;
#775 = LINE ( 'NONE', #340, #690 ) ;
#776 = SURFACE_STYLE_USAGE ( .BOTH. , #538 ) ;
#777 =( LENGTH_UNIT ( ) NAMED_UNIT ( * ) SI_UNIT ( .MILLI., .METRE. ) );
#778 = ORIENTED_EDGE ( 'NONE', *, *, #1351, .F. ) ;
#779 = CARTESIAN_POINT ( 'NONE',  ( 0.000000000000000000, 0.3600000000000000422, -0.4500000000000000666 ) ) ;
#780 = SURFACE_STYLE_FILL_AREA ( #871 ) ;
#781 = DIRECTION ( 'NONE',  ( -0.000000000000000000, -1.000000000000000000, -0.000000000000000000 ) ) ;
#782 = CARTESIAN_POINT ( 'NONE',  ( -0.3750000000000000000, 0.3499999999999999778, -0.4500000000000000666 ) ) ;
#783 = ORIENTED_EDGE ( 'NONE', *, *, #590, .T. ) ;
#784 = EDGE_CURVE ( 'NONE', #1358, #1184, #245, .T. ) ;
#785 = COLOUR_RGB ( '',0.6470588235294117974, 0.5176470588235293491, 0.000000000000000000 ) ;
#786 = ORIENTED_EDGE ( 'NONE', *, *, #1259, .F. ) ;
#787 =( NAMED_UNIT ( * ) SI_UNIT ( $, .STERADIAN. ) SOLID_ANGLE_UNIT ( ) );
#788 = MECHANICAL_DESIGN_GEOMETRIC_PRESENTATION_REPRESENTATION (  '', ( #359 ), #939 ) ;
#789 = DIRECTION ( 'NONE',  ( -1.000000000000000000, 0.000000000000000000, -0.000000000000000000 ) ) ;
#790 = MECHANICAL_DESIGN_GEOMETRIC_PRESENTATION_REPRESENTATION (  '', ( #470 ), #719 ) ;
#791 = UNCERTAINTY_MEASURE_WITH_UNIT (LENGTH_MEASURE( 1.000000000000000082E-05 ), #1057, 'distance_accuracy_value', 'NONE');
#792 = STYLED_ITEM ( 'NONE', ( #606 ), #352 ) ;
#793 = VERTEX_POINT ( 'NONE', #367 ) ;
#794 = SURFACE_STYLE_FILL_AREA ( #503 ) ;
#795 = DIRECTION ( 'NONE',  ( 1.000000000000000000, -0.000000000000000000, 0.000000000000000000 ) ) ;
#796 = DIRECTION ( 'NONE',  ( -0.000000000000000000, -0.000000000000000000, -1.000000000000000000 ) ) ;
#797 = ORIENTED_EDGE ( 'NONE', *, *, #1363, .T. ) ;
#798 = DIRECTION ( 'NONE',  ( 0.000000000000000000, 0.000000000000000000, 1.000000000000000000 ) ) ;
#799 = EDGE_CURVE ( 'NONE', #454, #544, #907, .T. ) ;
#800 = DIRECTION ( 'NONE',  ( -0.000000000000000000, -1.000000000000000000, -0.000000000000000000 ) ) ;
#801 = UNCERTAINTY_MEASURE_WITH_UNIT (LENGTH_MEASURE( 1.000000000000000082E-05 ), #957, 'distance_accuracy_value', 'NONE');
#802 = CARTESIAN_POINT ( 'NONE',  ( 0.000000000000000000, 0.3600000000000000422, -0.1625000000000000056 ) ) ;
#803 = ORIENTED_EDGE ( 'NONE', *, *, #799, .T. ) ;
#804 = SURFACE_STYLE_FILL_AREA ( #480 ) ;
#805 = LINE ( 'NONE', #384, #1208 ) ;
#806 = LINE ( 'NONE', #282, #1095 ) ;
#807 = AXIS2_PLACEMENT_3D ( 'NONE', #1170, #410, #942 ) ;
#808 = DIRECTION ( 'NONE',  ( -0.000000000000000000, -1.000000000000000000, -0.000000000000000000 ) ) ;
#809 = VERTEX_POINT ( 'NONE', #261 ) ;
#810 =( NAMED_UNIT ( * ) SI_UNIT ( $, .STERADIAN. ) SOLID_ANGLE_UNIT ( ) );
#811 = DIRECTION ( 'NONE',  ( 1.000000000000000000, -0.000000000000000000, 0.000000000000000000 ) ) ;
#812 = LINE ( 'NONE', #72, #283 ) ;
#813 = UNCERTAINTY_MEASURE_WITH_UNIT (LENGTH_MEASURE( 1.000000000000000082E-05 ), #824, 'distance_accuracy_value', 'NONE');
#814 = ORIENTED_EDGE ( 'NONE', *, *, #455, .T. ) ;
#815 = CARTESIAN_POINT ( 'NONE',  ( 0.000000000000000000, 0.3600000000000000422, -0.4500000000000000666 ) ) ;
#816 = FACE_OUTER_BOUND ( 'NONE', #828, .T. ) ;
#817 = FILL_AREA_STYLE ('',( #1235 ) ) ;
#818 = PRESENTATION_STYLE_ASSIGNMENT (( #520 ) ) ;
#819 = DIRECTION ( 'NONE',  ( -1.000000000000000000, 0.000000000000000000, -1.668003342285392044E-16 ) ) ;
#820 = FILL_AREA_STYLE_COLOUR ( '', #965 ) ;
#821 = ADVANCED_FACE ( 'NONE', ( #995 ), #571, .T. ) ;
#822 = ORIENTED_EDGE ( 'NONE', *, *, #402, .F. ) ;
#823 = EDGE_CURVE ( 'NONE', #1034, #544, #63, .T. ) ;
#824 =( LENGTH_UNIT ( ) NAMED_UNIT ( * ) SI_UNIT ( .MILLI., .METRE. ) );
#825 = CARTESIAN_POINT ( 'NONE',  ( 0.6999999999999999556, -0.3499999999999999778, -0.5500000000000000444 ) ) ;
#826 = DIRECTION ( 'NONE',  ( -1.000000000000000000, 0.000000000000000000, -0.000000000000000000 ) ) ;
#827 = EDGE_LOOP ( 'NONE', ( #117, #146, #739, #1197 ) ) ;
#828 = EDGE_LOOP ( 'NONE', ( #1086, #539, #989, #657 ) ) ;
#829 = EDGE_CURVE ( 'NONE', #1204, #415, #479, .T. ) ;
#830 = VECTOR ( 'NONE', #864, 1000.000000000000000 ) ;
#831 = PLANE ( 'NONE',  #900 ) ;
#832 = EDGE_CURVE ( 'NONE', #881, #862, #1227, .T. ) ;
#833 = DIRECTION ( 'NONE',  ( 0.000000000000000000, 0.000000000000000000, -1.000000000000000000 ) ) ;
#834 =( NAMED_UNIT ( * ) PLANE_ANGLE_UNIT ( ) SI_UNIT ( $, .RADIAN. ) );
#835 = CARTESIAN_POINT ( 'NONE',  ( 0.3750000000000000000, 0.3600000000000000422, 0.000000000000000000 ) ) ;
#836 = LINE ( 'NONE', #950, #306 ) ;
#837 =( NAMED_UNIT ( * ) PLANE_ANGLE_UNIT ( ) SI_UNIT ( $, .RADIAN. ) );
#838 = SURFACE_SIDE_STYLE ('',( #935 ) ) ;
#839 = DIRECTION ( 'NONE',  ( 1.000000000000000000, 0.000000000000000000, -1.668003342285392044E-16 ) ) ;
#840 = ORIENTED_EDGE ( 'NONE', *, *, #389, .F. ) ;
#841 = CARTESIAN_POINT ( 'NONE',  ( -0.6250000000000000000, 0.3600000000000000422, 0.1250000000000000555 ) ) ;
#842 =( GEOMETRIC_REPRESENTATION_CONTEXT ( 3 ) GLOBAL_UNCERTAINTY_ASSIGNED_CONTEXT ( ( #443 ) ) GLOBAL_UNIT_ASSIGNED_CONTEXT ( ( #920, #1051, #753 ) ) REPRESENTATION_CONTEXT ( 'NONE', 'WORKASPACE' ) );
#843 = FACE_OUTER_BOUND ( 'NONE', #653, .T. ) ;
#844 = VECTOR ( 'NONE', #452, 1000.000000000000000 ) ;
#845 = DIRECTION ( 'NONE',  ( 1.000000000000000000, 0.000000000000000000, -0.000000000000000000 ) ) ;
#846 = COLOUR_RGB ( '',0.6470588235294117974, 0.5176470588235293491, 0.000000000000000000 ) ;
#847 = COLOUR_RGB ( '',0.2509803921568627416, 0.2509803921568627416, 0.2509803921568627416 ) ;
#848 = STYLED_ITEM ( 'NONE', ( #1134 ), #1171 ) ;
#849 = PLANE ( 'NONE',  #807 ) ;
#850 = CARTESIAN_POINT ( 'NONE',  ( 0.1250000000000000833, 0.3499999999999999778, 0.1250000000000000555 ) ) ;
#851 = ORIENTED_EDGE ( 'NONE', *, *, #455, .F. ) ;
#852 = MECHANICAL_DESIGN_GEOMETRIC_PRESENTATION_REPRESENTATION (  '', ( #426 ), #620 ) ;
#853 = LINE ( 'NONE', #535, #605 ) ;
#854 = ORIENTED_EDGE ( 'NONE', *, *, #1141, .F. ) ;
#855 = SURFACE_STYLE_USAGE ( .BOTH. , #659 ) ;
#856 = LINE ( 'NONE', #747, #737 ) ;
#857 = ORIENTED_EDGE ( 'NONE', *, *, #1300, .F. ) ;
#858 = PRESENTATION_STYLE_ASSIGNMENT (( #1093 ) ) ;
#859 = DIRECTION ( 'NONE',  ( 0.000000000000000000, 0.000000000000000000, 1.000000000000000000 ) ) ;
#860 = EDGE_LOOP ( 'NONE', ( #1152, #505, #560, #268 ) ) ;
#861 = CARTESIAN_POINT ( 'NONE',  ( -0.6999999999999998446, -0.3499999999999999778, 0.5499999999999999334 ) ) ;
#862 = VERTEX_POINT ( 'NONE', #695 ) ;
#863 = EDGE_CURVE ( 'NONE', #24, #1172, #1128, .T. ) ;
#864 = DIRECTION ( 'NONE',  ( -1.000000000000000000, -0.000000000000000000, -0.000000000000000000 ) ) ;
#865 = SURFACE_STYLE_USAGE ( .BOTH. , #36 ) ;
#866 = PRODUCT_RELATED_PRODUCT_CATEGORY ( 'part', '', ( #237 ) ) ;
#867 = UNCERTAINTY_MEASURE_WITH_UNIT (LENGTH_MEASURE( 1.000000000000000082E-05 ), #1317, 'distance_accuracy_value', 'NONE');
#868 =( GEOMETRIC_REPRESENTATION_CONTEXT ( 3 ) GLOBAL_UNCERTAINTY_ASSIGNED_CONTEXT ( ( #456 ) ) GLOBAL_UNIT_ASSIGNED_CONTEXT ( ( #374, #518, #1062 ) ) REPRESENTATION_CONTEXT ( 'NONE', 'WORKASPACE' ) );
#869 = CARTESIAN_POINT ( 'NONE',  ( -0.6250000000000000000, 0.3499999999999999778, -0.000000000000000000 ) ) ;
#870 = EDGE_LOOP ( 'NONE', ( #399, #748, #1285, #41 ) ) ;
#871 = FILL_AREA_STYLE ('',( #765 ) ) ;
#872 = AXIS2_PLACEMENT_3D ( 'NONE', #973, #859, #845 ) ;
#873 = VECTOR ( 'NONE', #419, 1000.000000000000000 ) ;
#874 =( LENGTH_UNIT ( ) NAMED_UNIT ( * ) SI_UNIT ( .MILLI., .METRE. ) );
#875 =( NAMED_UNIT ( * ) PLANE_ANGLE_UNIT ( ) SI_UNIT ( $, .RADIAN. ) );
#876 =( NAMED_UNIT ( * ) PLANE_ANGLE_UNIT ( ) SI_UNIT ( $, .RADIAN. ) );
#877 = SURFACE_STYLE_USAGE ( .BOTH. , #772 ) ;
#878 = ORIENTED_EDGE ( 'NONE', *, *, #1292, .F. ) ;
#879 = CARTESIAN_POINT ( 'NONE',  ( 0.1250000000000000833, 0.3499999999999999778, 1.042502088928370490E-17 ) ) ;
#880 = PLANE ( 'NONE',  #1347 ) ;
#881 = VERTEX_POINT ( 'NONE', #98 ) ;
#882 = CARTESIAN_POINT ( 'NONE',  ( -0.1249999999999999722, 0.3499999999999999778, -1.042502088928369565E-17 ) ) ;
#883 = ORIENTED_EDGE ( 'NONE', *, *, #161, .F. ) ;
#884 = DIRECTION ( 'NONE',  ( -0.000000000000000000, -1.000000000000000000, -0.000000000000000000 ) ) ;
#885 = CARTESIAN_POINT ( 'NONE',  ( -0.6999999999999999556, -0.3499999999999999778, -0.5500000000000000444 ) ) ;
#886 = PRESENTATION_STYLE_ASSIGNMENT (( #865 ) ) ;
#887 = VECTOR ( 'NONE', #1004, 1000.000000000000000 ) ;
#888 = STYLED_ITEM ( 'NONE', ( #246 ), #525 ) ;
#889 = ORIENTED_EDGE ( 'NONE', *, *, #567, .F. ) ;
#890 = CARTESIAN_POINT ( 'NONE',  ( 0.6999999999999999556, 0.3499999999999999778, -0.5500000000000000444 ) ) ;
#891 = STYLED_ITEM ( 'NONE', ( #918 ), #943 ) ;
#892 = SHAPE_DEFINITION_REPRESENTATION ( #44, #525 ) ;
#893 =( GEOMETRIC_REPRESENTATION_CONTEXT ( 3 ) GLOBAL_UNCERTAINTY_ASSIGNED_CONTEXT ( ( #1009 ) ) GLOBAL_UNIT_ASSIGNED_CONTEXT ( ( #634, #875, #966 ) ) REPRESENTATION_CONTEXT ( 'NONE', 'WORKASPACE' ) );
#894 = DIRECTION ( 'NONE',  ( 1.668003342285391551E-16, 0.000000000000000000, -1.000000000000000000 ) ) ;
#895 = AXIS2_PLACEMENT_3D ( 'NONE', #770, #304, #504 ) ;
#896 = VECTOR ( 'NONE', #350, 1000.000000000000000 ) ;
#897 = CARTESIAN_POINT ( 'NONE',  ( -0.1249999999999999722, 0.3600000000000000422, 0.1250000000000000555 ) ) ;
#898 = COLOUR_RGB ( '',0.6470588235294117974, 0.5176470588235293491, 0.000000000000000000 ) ;
#899 = COLOUR_RGB ( '',0.6470588235294117974, 0.5176470588235293491, 0.000000000000000000 ) ;
#900 = AXIS2_PLACEMENT_3D ( 'NONE', #397, #3, #826 ) ;
#901 = ORIENTED_EDGE ( 'NONE', *, *, #720, .T. ) ;
#902 = ADVANCED_FACE ( 'NONE', ( #509 ), #207, .F. ) ;
#903 = FACE_BOUND ( 'NONE', #348, .T. ) ;
#904 = LINE ( 'NONE', #179, #297 ) ;
#905 = DIRECTION ( 'NONE',  ( -0.000000000000000000, -1.000000000000000000, -0.000000000000000000 ) ) ;
#906 = DIRECTION ( 'NONE',  ( 1.000000000000000000, -0.000000000000000000, 0.000000000000000000 ) ) ;
#907 = LINE ( 'NONE', #1198, #459 ) ;
#908 =( NAMED_UNIT ( * ) SI_UNIT ( $, .STERADIAN. ) SOLID_ANGLE_UNIT ( ) );
#909 = FACE_OUTER_BOUND ( 'NONE', #722, .T. ) ;
#910 = SURFACE_STYLE_FILL_AREA ( #287 ) ;
#911 = FILL_AREA_STYLE_COLOUR ( '', #548 ) ;
#912 = LINE ( 'NONE', #258, #1349 ) ;
#913 = UNCERTAINTY_MEASURE_WITH_UNIT (LENGTH_MEASURE( 1.000000000000000082E-05 ), #17, 'distance_accuracy_value', 'NONE');
#914 = ORIENTED_EDGE ( 'NONE', *, *, #241, .T. ) ;
#915 =( GEOMETRIC_REPRESENTATION_CONTEXT ( 3 ) GLOBAL_UNCERTAINTY_ASSIGNED_CONTEXT ( ( #1318 ) ) GLOBAL_UNIT_ASSIGNED_CONTEXT ( ( #508, #2, #1050 ) ) REPRESENTATION_CONTEXT ( 'NONE', 'WORKASPACE' ) );
#916 = DIRECTION ( 'NONE',  ( -0.000000000000000000, -1.000000000000000000, -0.000000000000000000 ) ) ;
#917 = EDGE_CURVE ( 'NONE', #193, #471, #545, .T. ) ;
#918 = PRESENTATION_STYLE_ASSIGNMENT (( #701 ) ) ;
#919 = DIRECTION ( 'NONE',  ( 1.000000000000000000, 0.000000000000000000, -9.856383386231860060E-17 ) ) ;
#920 =( LENGTH_UNIT ( ) NAMED_UNIT ( * ) SI_UNIT ( .MILLI., .METRE. ) );
#921 = CARTESIAN_POINT ( 'NONE',  ( -0.1250000000000000000, 0.3499999999999999778, -0.4500000000000000666 ) ) ;
#922 = SURFACE_STYLE_FILL_AREA ( #379 ) ;
#923 = ORIENTED_EDGE ( 'NONE', *, *, #612, .T. ) ;
#924 = SURFACE_STYLE_FILL_AREA ( #817 ) ;
#925 = DIRECTION ( 'NONE',  ( 0.000000000000000000, 0.000000000000000000, 1.000000000000000000 ) ) ;
#926 = ORIENTED_EDGE ( 'NONE', *, *, #310, .T. ) ;
#927 = FILL_AREA_STYLE ('',( #413 ) ) ;
#928 = SURFACE_STYLE_USAGE ( .BOTH. , #66 ) ;
#929 = ORIENTED_EDGE ( 'NONE', *, *, #144, .F. ) ;
#930 =( LENGTH_UNIT ( ) NAMED_UNIT ( * ) SI_UNIT ( .MILLI., .METRE. ) );
#931 = ADVANCED_FACE ( 'NONE', ( #1080 ), #1109, .T. ) ;
#932 = LINE ( 'NONE', #105, #1275 ) ;
#933 = ORIENTED_EDGE ( 'NONE', *, *, #148, .T. ) ;
#934 = AXIS2_PLACEMENT_3D ( 'NONE', #815, #1228, #1239 ) ;
#935 = SURFACE_STYLE_FILL_AREA ( #927 ) ;
#936 = FACE_OUTER_BOUND ( 'NONE', #610, .T. ) ;
#937 = DIRECTION ( 'NONE',  ( -1.000000000000000000, 0.000000000000000000, 0.000000000000000000 ) ) ;
#938 = PRESENTATION_LAYER_ASSIGNMENT (  '', '', ( #222 ) ) ;
#939 =( GEOMETRIC_REPRESENTATION_CONTEXT ( 3 ) GLOBAL_UNCERTAINTY_ASSIGNED_CONTEXT ( ( #162 ) ) GLOBAL_UNIT_ASSIGNED_CONTEXT ( ( #1087, #328, #749 ) ) REPRESENTATION_CONTEXT ( 'NONE', 'WORKASPACE' ) );
#940 = ORIENTED_EDGE ( 'NONE', *, *, #173, .F. ) ;
#941 = COLOUR_RGB ( '',0.6470588235294117974, 0.5176470588235293491, 0.000000000000000000 ) ;
#942 = DIRECTION ( 'NONE',  ( -1.000000000000000000, 0.000000000000000000, -0.000000000000000000 ) ) ;
#943 = ADVANCED_FACE ( 'NONE', ( #432, #709, #1035, #903, #573, #909 ), #271, .T. ) ;
#944 = CARTESIAN_POINT ( 'NONE',  ( 0.000000000000000000, 0.3600000000000000422, 0.1625000000000000056 ) ) ;
#945 = FILL_AREA_STYLE ('',( #743 ) ) ;
#946 = ADVANCED_FACE ( 'NONE', ( #816 ), #87, .T. ) ;
#947 = CARTESIAN_POINT ( 'NONE',  ( -0.6999999999999999556, -0.3499999999999999778, -0.5500000000000000444 ) ) ;
#948 = FACE_OUTER_BOUND ( 'NONE', #240, .T. ) ;
#949 = VERTEX_POINT ( 'NONE', #602 ) ;
#950 = CARTESIAN_POINT ( 'NONE',  ( 0.000000000000000000, 0.3499999999999999778, -0.1250000000000000555 ) ) ;
#951 = SURFACE_STYLE_FILL_AREA ( #110 ) ;
#952 = SURFACE_STYLE_FILL_AREA ( #1370 ) ;
#953 = EDGE_LOOP ( 'NONE', ( #599, #1290, #13, #840 ) ) ;
#954 = PRESENTATION_LAYER_ASSIGNMENT (  '', '', ( #487 ) ) ;
#955 =( LENGTH_UNIT ( ) NAMED_UNIT ( * ) SI_UNIT ( .MILLI., .METRE. ) );
#956 = LINE ( 'NONE', #1173, #674 ) ;
#957 =( LENGTH_UNIT ( ) NAMED_UNIT ( * ) SI_UNIT ( .MILLI., .METRE. ) );
#958 =( GEOMETRIC_REPRESENTATION_CONTEXT ( 3 ) GLOBAL_UNCERTAINTY_ASSIGNED_CONTEXT ( ( #913 ) ) GLOBAL_UNIT_ASSIGNED_CONTEXT ( ( #17, #834, #194 ) ) REPRESENTATION_CONTEXT ( 'NONE', 'WORKASPACE' ) );
#959 = ADVANCED_FACE ( 'NONE', ( #65 ), #1133, .F. ) ;
#960 = CARTESIAN_POINT ( 'NONE',  ( -0.6999999999999998446, 0.3499999999999999778, 0.5499999999999999334 ) ) ;
#961 = ORIENTED_EDGE ( 'NONE', *, *, #832, .T. ) ;
#962 = PRESENTATION_LAYER_ASSIGNMENT (  '', '', ( #495 ) ) ;
#963 = CARTESIAN_POINT ( 'NONE',  ( 0.6250000000000002220, 0.3600000000000000422, 0.1625000000000000056 ) ) ;
#964 =( NAMED_UNIT ( * ) PLANE_ANGLE_UNIT ( ) SI_UNIT ( $, .RADIAN. ) );
#965 = COLOUR_RGB ( '',0.2509803921568627416, 0.2509803921568627416, 0.2509803921568627416 ) ;
#966 =( NAMED_UNIT ( * ) SI_UNIT ( $, .STERADIAN. ) SOLID_ANGLE_UNIT ( ) );
#967 = UNCERTAINTY_MEASURE_WITH_UNIT (LENGTH_MEASURE( 1.000000000000000082E-05 ), #345, 'distance_accuracy_value', 'NONE');
#968 =( NAMED_UNIT ( * ) PLANE_ANGLE_UNIT ( ) SI_UNIT ( $, .RADIAN. ) );
#969 = FILL_AREA_STYLE_COLOUR ( '', #14 ) ;
#970 = ORIENTED_EDGE ( 'NONE', *, *, #45, .T. ) ;
#971 = ADVANCED_FACE ( 'NONE', ( #948 ), #849, .T. ) ;
#972 = FILL_AREA_STYLE_COLOUR ( '', #1326 ) ;
#973 = CARTESIAN_POINT ( 'NONE',  ( -0.6999999999999999556, 0.3499999999999999778, -0.5500000000000000444 ) ) ;
#974 = LINE ( 'NONE', #450, #252 ) ;
#975 = ADVANCED_FACE ( 'NONE', ( #401 ), #103, .T. ) ;
#976 = CARTESIAN_POINT ( 'NONE',  ( 0.1250000000000000833, 0.3600000000000000422, -1.042502088928370490E-17 ) ) ;
#977 = DIRECTION ( 'NONE',  ( -1.000000000000000000, 0.000000000000000000, -0.000000000000000000 ) ) ;
#978 = ORIENTED_EDGE ( 'NONE', *, *, #249, .T. ) ;
#979 = LINE ( 'NONE', #774, #744 ) ;
#980 = COLOUR_RGB ( '',0.6470588235294117974, 0.5176470588235293491, 0.000000000000000000 ) ;
#981 = DIRECTION ( 'NONE',  ( 8.340016711426957754E-17, 0.000000000000000000, 1.000000000000000000 ) ) ;
#982 = FILL_AREA_STYLE_COLOUR ( '', #941 ) ;
#983 =( GEOMETRIC_REPRESENTATION_CONTEXT ( 3 ) GLOBAL_UNCERTAINTY_ASSIGNED_CONTEXT ( ( #489 ) ) GLOBAL_UNIT_ASSIGNED_CONTEXT ( ( #123, #661, #787 ) ) REPRESENTATION_CONTEXT ( 'NONE', 'WORKASPACE' ) );
#984 =( NAMED_UNIT ( * ) PLANE_ANGLE_UNIT ( ) SI_UNIT ( $, .RADIAN. ) );
#985 = VERTEX_POINT ( 'NONE', #616 ) ;
#986 =( NAMED_UNIT ( * ) PLANE_ANGLE_UNIT ( ) SI_UNIT ( $, .RADIAN. ) );
#987 = CARTESIAN_POINT ( 'NONE',  ( -0.6999999999999999556, 0.3499999999999999778, -0.5500000000000000444 ) ) ;
#988 = PRESENTATION_LAYER_ASSIGNMENT (  '', '', ( #628 ) ) ;
#989 = ORIENTED_EDGE ( 'NONE', *, *, #107, .T. ) ;
#990 = LINE ( 'NONE', #150, #759 ) ;
#991 = CARTESIAN_POINT ( 'NONE',  ( 0.6999999999999999556, 0.3499999999999999778, 0.5499999999999999334 ) ) ;
#992 = ORIENTED_EDGE ( 'NONE', *, *, #484, .F. ) ;
#993 = UNCERTAINTY_MEASURE_WITH_UNIT (LENGTH_MEASURE( 1.000000000000000082E-05 ), #587, 'distance_accuracy_value', 'NONE');
#994 = ORIENTED_EDGE ( 'NONE', *, *, #741, .F. ) ;
#995 = FACE_OUTER_BOUND ( 'NONE', #860, .T. ) ;
#996 = FACE_OUTER_BOUND ( 'NONE', #19, .T. ) ;
#997 = EDGE_CURVE ( 'NONE', #55, #332, #99, .T. ) ;
#998 = FILL_AREA_STYLE ('',( #1313 ) ) ;
#999 = LINE ( 'NONE', #57, #435 ) ;
#1000 = CARTESIAN_POINT ( 'NONE',  ( -0.6250000000000000000, 0.3600000000000000422, -0.1250000000000000555 ) ) ;
#1001 = VECTOR ( 'NONE', #740, 1000.000000000000000 ) ;
#1002 = ORIENTED_EDGE ( 'NONE', *, *, #274, .T. ) ;
#1003 = SURFACE_STYLE_USAGE ( .BOTH. , #496 ) ;
#1004 = DIRECTION ( 'NONE',  ( 1.668003342285391551E-16, 0.000000000000000000, 1.000000000000000000 ) ) ;
#1005 = MECHANICAL_DESIGN_GEOMETRIC_PRESENTATION_REPRESENTATION (  '', ( #848 ), #1273 ) ;
#1006 = VECTOR ( 'NONE', #728, 1000.000000000000000 ) ;
#1007 = DIRECTION ( 'NONE',  ( 1.000000000000000000, -0.000000000000000000, 0.000000000000000000 ) ) ;
#1008 = VECTOR ( 'NONE', #120, 1000.000000000000000 ) ;
#1009 = UNCERTAINTY_MEASURE_WITH_UNIT (LENGTH_MEASURE( 1.000000000000000082E-05 ), #634, 'distance_accuracy_value', 'NONE');
#1010 = VECTOR ( 'NONE', #339, 1000.000000000000000 ) ;
#1011 = ORIENTED_EDGE ( 'NONE', *, *, #784, .T. ) ;
#1012 = DIRECTION ( 'NONE',  ( 0.000000000000000000, 1.000000000000000000, -0.000000000000000000 ) ) ;
#1013 = SURFACE_SIDE_STYLE ('',( #145 ) ) ;
#1014 =( NAMED_UNIT ( * ) PLANE_ANGLE_UNIT ( ) SI_UNIT ( $, .RADIAN. ) );
#1015 = CARTESIAN_POINT ( 'NONE',  ( 0.3750000000000000000, 0.3600000000000000422, 0.1625000000000000056 ) ) ;
#1016 = EDGE_CURVE ( 'NONE', #1358, #55, #1047, .T. ) ;
#1017 = EDGE_LOOP ( 'NONE', ( #1126, #327, #229, #1119 ) ) ;
#1018 = DIRECTION ( 'NONE',  ( -0.000000000000000000, -1.000000000000000000, -0.000000000000000000 ) ) ;
#1019 =( NAMED_UNIT ( * ) SI_UNIT ( $, .STERADIAN. ) SOLID_ANGLE_UNIT ( ) );
#1020 = CARTESIAN_POINT ( 'NONE',  ( -0.6250000000000000000, 0.3600000000000000422, 0.000000000000000000 ) ) ;
#1021 = DIRECTION ( 'NONE',  ( 8.340016711426957754E-17, 0.000000000000000000, -1.000000000000000000 ) ) ;
#1022 = DIRECTION ( 'NONE',  ( 1.668003342285391551E-16, 0.000000000000000000, -1.000000000000000000 ) ) ;
#1023 = DIRECTION ( 'NONE',  ( 9.856383386231860060E-17, 0.000000000000000000, 1.000000000000000000 ) ) ;
#1024 = VERTEX_POINT ( 'NONE', #861 ) ;
#1025 = PRESENTATION_LAYER_ASSIGNMENT (  '', '', ( #159 ) ) ;
#1026 = CARTESIAN_POINT ( 'NONE',  ( -0.3750000000000000000, 0.3600000000000000422, 0.4500000000000000666 ) ) ;
#1027 = EDGE_CURVE ( 'NONE', #1034, #471, #430, .T. ) ;
#1028 =( GEOMETRIC_REPRESENTATION_CONTEXT ( 3 ) GLOBAL_UNCERTAINTY_ASSIGNED_CONTEXT ( ( #1287 ) ) GLOBAL_UNIT_ASSIGNED_CONTEXT ( ( #263, #1354, #1019 ) ) REPRESENTATION_CONTEXT ( 'NONE', 'WORKASPACE' ) );
#1029 = MECHANICAL_DESIGN_GEOMETRIC_PRESENTATION_REPRESENTATION (  '', ( #1142 ), #893 ) ;
#1030 = CARTESIAN_POINT ( 'NONE',  ( -0.1249999999999999722, 0.3600000000000000422, 1.042502088928369565E-17 ) ) ;
#1031 = FILL_AREA_STYLE ('',( #186 ) ) ;
#1032 = ADVANCED_FACE ( 'NONE', ( #1205 ), #1084, .F. ) ;
#1033 = STYLED_ITEM ( 'NONE', ( #886 ), #22 ) ;
#1034 = VERTEX_POINT ( 'NONE', #128 ) ;
#1035 = FACE_BOUND ( 'NONE', #485, .T. ) ;
#1036 = DIRECTION ( 'NONE',  ( 1.000000000000000000, 0.000000000000000000, 0.000000000000000000 ) ) ;
#1037 = SURFACE_SIDE_STYLE ('',( #89 ) ) ;
#1038 = VERTEX_POINT ( 'NONE', #1098 ) ;
#1039 = DIRECTION ( 'NONE',  ( 0.000000000000000000, 1.000000000000000000, -0.000000000000000000 ) ) ;
#1040 = LINE ( 'NONE', #1154, #119 ) ;
#1041 = ORIENTED_EDGE ( 'NONE', *, *, #311, .F. ) ;
#1042 = PRESENTATION_STYLE_ASSIGNMENT (( #196 ) ) ;
#1043 = CARTESIAN_POINT ( 'NONE',  ( -0.3749999999999999445, 0.3600000000000000422, -6.255012533570217699E-17 ) ) ;
#1044 = ADVANCED_FACE ( 'NONE', ( #762 ), #1296, .T. ) ;
#1045 = ORIENTED_EDGE ( 'NONE', *, *, #823, .T. ) ;
#1046 = VECTOR ( 'NONE', #1361, 1000.000000000000000 ) ;
#1047 = LINE ( 'NONE', #513, #377 ) ;
#1048 = VECTOR ( 'NONE', #1018, 1000.000000000000000 ) ;
#1049 = CARTESIAN_POINT ( 'NONE',  ( -0.6250000000000000000, 0.3600000000000000422, 0.000000000000000000 ) ) ;
#1050 =( NAMED_UNIT ( * ) SI_UNIT ( $, .STERADIAN. ) SOLID_ANGLE_UNIT ( ) );
#1051 =( NAMED_UNIT ( * ) PLANE_ANGLE_UNIT ( ) SI_UNIT ( $, .RADIAN. ) );
#1052 = FILL_AREA_STYLE ('',( #745 ) ) ;
#1053 = STYLED_ITEM ( 'NONE', ( #1159 ), #975 ) ;
#1054 = MECHANICAL_DESIGN_GEOMETRIC_PRESENTATION_REPRESENTATION (  '', ( #1072 ), #118 ) ;
#1055 = ADVANCED_FACE ( 'NONE', ( #16 ), #427, .F. ) ;
#1056 = VECTOR ( 'NONE', #1007, 1000.000000000000000 ) ;
#1057 =( LENGTH_UNIT ( ) NAMED_UNIT ( * ) SI_UNIT ( .MILLI., .METRE. ) );
#1058 = DIRECTION ( 'NONE',  ( 0.000000000000000000, 1.000000000000000000, -0.000000000000000000 ) ) ;
#1059 = VERTEX_POINT ( 'NONE', #267 ) ;
#1060 = SURFACE_SIDE_STYLE ('',( #407 ) ) ;
#1061 = PLANE ( 'NONE',  #872 ) ;
#1062 =( NAMED_UNIT ( * ) SI_UNIT ( $, .STERADIAN. ) SOLID_ANGLE_UNIT ( ) );
#1063 = DIRECTION ( 'NONE',  ( -1.668003342285392044E-16, 0.000000000000000000, -1.000000000000000000 ) ) ;
#1064 = VERTEX_POINT ( 'NONE', #706 ) ;
#1065 =( GEOMETRIC_REPRESENTATION_CONTEXT ( 3 ) GLOBAL_UNCERTAINTY_ASSIGNED_CONTEXT ( ( #699 ) ) GLOBAL_UNIT_ASSIGNED_CONTEXT ( ( #930, #1242, #7 ) ) REPRESENTATION_CONTEXT ( 'NONE', 'WORKASPACE' ) );
#1066 = CARTESIAN_POINT ( 'NONE',  ( 0.1250000000000000555, 0.3600000000000000422, -0.4500000000000000666 ) ) ;
#1067 = AXIS2_PLACEMENT_3D ( 'NONE', #1355, #320, #618 ) ;
#1068 = CARTESIAN_POINT ( 'NONE',  ( 0.6250000000000002220, 0.3499999999999999778, 0.1625000000000000056 ) ) ;
#1069 = EDGE_CURVE ( 'NONE', #1092, #1024, #1352, .T. ) ;
#1070 = SURFACE_STYLE_USAGE ( .BOTH. , #109 ) ;
#1071 = ORIENTED_EDGE ( 'NONE', *, *, #387, .F. ) ;
#1072 = STYLED_ITEM ( 'NONE', ( #116 ), #1169 ) ;
#1073 = COLOUR_RGB ( '',0.6470588235294117974, 0.5176470588235293491, 0.000000000000000000 ) ;
#1074 = COLOUR_RGB ( '',0.6470588235294117974, 0.5176470588235293491, 0.000000000000000000 ) ;
#1075 =( LENGTH_UNIT ( ) NAMED_UNIT ( * ) SI_UNIT ( .MILLI., .METRE. ) );
#1076 = DIRECTION ( 'NONE',  ( -1.000000000000000000, 0.000000000000000000, -0.000000000000000000 ) ) ;
#1077 = VERTEX_POINT ( 'NONE', #74 ) ;
#1078 = MECHANICAL_DESIGN_GEOMETRIC_PRESENTATION_REPRESENTATION (  '', ( #767 ), #554 ) ;
#1079 = COLOUR_RGB ( '',0.6470588235294117974, 0.5176470588235293491, 0.000000000000000000 ) ;
#1080 = FACE_OUTER_BOUND ( 'NONE', #1180, .T. ) ;
#1081 = CARTESIAN_POINT ( 'NONE',  ( 0.3750000000000000000, 0.3499999999999999778, -0.000000000000000000 ) ) ;
#1082 = FILL_AREA_STYLE ('',( #982 ) ) ;
#1083 = EDGE_CURVE ( 'NONE', #1132, #881, #60, .T. ) ;
#1084 = PLANE ( 'NONE',  #764 ) ;
#1085 = DIRECTION ( 'NONE',  ( 0.000000000000000000, 0.000000000000000000, -1.000000000000000000 ) ) ;
#1086 = ORIENTED_EDGE ( 'NONE', *, *, #1016, .F. ) ;
#1087 =( LENGTH_UNIT ( ) NAMED_UNIT ( * ) SI_UNIT ( .MILLI., .METRE. ) );
#1088 = ORIENTED_EDGE ( 'NONE', *, *, #1121, .T. ) ;
#1089 = ADVANCED_FACE ( 'NONE', ( #477 ), #491, .F. ) ;
#1090 = SURFACE_STYLE_FILL_AREA ( #228 ) ;
#1091 = SURFACE_STYLE_FILL_AREA ( #139 ) ;
#1092 = VERTEX_POINT ( 'NONE', #947 ) ;
#1093 = SURFACE_STYLE_USAGE ( .BOTH. , #429 ) ;
#1094 = EDGE_CURVE ( 'NONE', #760, #679, #1264, .T. ) ;
#1095 = VECTOR ( 'NONE', #611, 1000.000000000000000 ) ;
#1096 = SURFACE_STYLE_FILL_AREA ( #35 ) ;
#1097 = DIRECTION ( 'NONE',  ( 0.000000000000000000, 0.000000000000000000, -1.000000000000000000 ) ) ;
#1098 = CARTESIAN_POINT ( 'NONE',  ( -0.3749999999999999445, 0.3600000000000000422, -0.1250000000000000555 ) ) ;
#1099 =( NAMED_UNIT ( * ) PLANE_ANGLE_UNIT ( ) SI_UNIT ( $, .RADIAN. ) );
#1100 = CARTESIAN_POINT ( 'NONE',  ( 0.000000000000000000, 0.3499999999999999778, 0.4500000000000000666 ) ) ;
#1101 = CARTESIAN_POINT ( 'NONE',  ( 0.000000000000000000, 0.000000000000000000, 0.000000000000000000 ) ) ;
#1102 = PRESENTATION_LAYER_ASSIGNMENT (  '', '', ( #767 ) ) ;
#1103 = VECTOR ( 'NONE', #1124, 1000.000000000000000 ) ;
#1104 = STYLED_ITEM ( 'NONE', ( #756 ), #361 ) ;
#1105 = SURFACE_STYLE_FILL_AREA ( #1082 ) ;
#1106 = PLANE ( 'NONE',  #251 ) ;
#1107 = ORIENTED_EDGE ( 'NONE', *, *, #1365, .T. ) ;
#1108 = LINE ( 'NONE', #779, #461 ) ;
#1109 = PLANE ( 'NONE',  #667 ) ;
#1110 = SURFACE_STYLE_FILL_AREA ( #475 ) ;
#1111 = PRESENTATION_STYLE_ASSIGNMENT (( #703 ) ) ;
#1112 = UNCERTAINTY_MEASURE_WITH_UNIT (LENGTH_MEASURE( 1.000000000000000082E-05 ), #1302, 'distance_accuracy_value', 'NONE');
#1113 = FILL_AREA_STYLE_COLOUR ( '', #54 ) ;
#1114 = DIRECTION ( 'NONE',  ( 0.000000000000000000, 0.000000000000000000, 1.000000000000000000 ) ) ;
#1115 =( LENGTH_UNIT ( ) NAMED_UNIT ( * ) SI_UNIT ( .MILLI., .METRE. ) );
#1116 = DIRECTION ( 'NONE',  ( 1.000000000000000000, -0.000000000000000000, 0.000000000000000000 ) ) ;
#1117 = MECHANICAL_DESIGN_GEOMETRIC_PRESENTATION_REPRESENTATION (  '', ( #888 ), #730 ) ;
#1118 = MECHANICAL_DESIGN_GEOMETRIC_PRESENTATION_REPRESENTATION (  '', ( #641 ), #622 ) ;
#1119 = ORIENTED_EDGE ( 'NONE', *, *, #122, .T. ) ;
#1120 = SURFACE_STYLE_FILL_AREA ( #581 ) ;
#1121 = EDGE_CURVE ( 'NONE', #881, #1064, #1163, .T. ) ;
#1122 = DIRECTION ( 'NONE',  ( 0.000000000000000000, 1.000000000000000000, 0.000000000000000000 ) ) ;
#1123 = VECTOR ( 'NONE', #751, 1000.000000000000000 ) ;
#1124 = DIRECTION ( 'NONE',  ( -0.000000000000000000, -1.000000000000000000, -0.000000000000000000 ) ) ;
#1125 = UNCERTAINTY_MEASURE_WITH_UNIT (LENGTH_MEASURE( 1.000000000000000082E-05 ), #1338, 'distance_accuracy_value', 'NONE');
#1126 = ORIENTED_EDGE ( 'NONE', *, *, #389, .T. ) ;
#1127 = MANIFOLD_SOLID_BREP ( 'Boss-Extrude2', #742 ) ;
#1128 = LINE ( 'NONE', #255, #683 ) ;
#1129 =( NAMED_UNIT ( * ) SI_UNIT ( $, .STERADIAN. ) SOLID_ANGLE_UNIT ( ) );
#1130 = CARTESIAN_POINT ( 'NONE',  ( 0.1250000000000000833, 0.3600000000000000422, 1.042502088928370490E-17 ) ) ;
#1131 = CARTESIAN_POINT ( 'NONE',  ( -0.6999999999999999556, -0.3499999999999999778, -0.5500000000000000444 ) ) ;
#1132 = VERTEX_POINT ( 'NONE', #656 ) ;
#1133 = PLANE ( 'NONE',  #398 ) ;
#1134 = PRESENTATION_STYLE_ASSIGNMENT (( #281 ) ) ;
#1135 = CARTESIAN_POINT ( 'NONE',  ( 0.1250000000000000555, 0.3499999999999999778, 0.4500000000000000666 ) ) ;
#1136 = ORIENTED_EDGE ( 'NONE', *, *, #741, .T. ) ;
#1137 =( GEOMETRIC_REPRESENTATION_CONTEXT ( 3 ) GLOBAL_UNCERTAINTY_ASSIGNED_CONTEXT ( ( #180 ) ) GLOBAL_UNIT_ASSIGNED_CONTEXT ( ( #1337, #1343, #157 ) ) REPRESENTATION_CONTEXT ( 'NONE', 'WORKASPACE' ) );
#1138 = DIRECTION ( 'NONE',  ( 0.000000000000000000, -0.000000000000000000, 1.000000000000000000 ) ) ;
#1139 = CARTESIAN_POINT ( 'NONE',  ( -0.1249999999999999722, 0.3600000000000000422, -0.1250000000000000555 ) ) ;
#1140 = LINE ( 'NONE', #202, #1001 ) ;
#1141 = EDGE_CURVE ( 'NONE', #425, #140, #705, .T. ) ;
#1142 = STYLED_ITEM ( 'NONE', ( #541 ), #1158 ) ;
#1143 =( LENGTH_UNIT ( ) NAMED_UNIT ( * ) SI_UNIT ( .MILLI., .METRE. ) );
#1144 = AXIS2_PLACEMENT_3D ( 'NONE', #1310, #1085, #977 ) ;
#1145 = VECTOR ( 'NONE', #796, 1000.000000000000000 ) ;
#1146 = PRESENTATION_LAYER_ASSIGNMENT (  '', '', ( #792 ) ) ;
#1147 = ORIENTED_EDGE ( 'NONE', *, *, #596, .T. ) ;
#1148 =( NAMED_UNIT ( * ) SI_UNIT ( $, .STERADIAN. ) SOLID_ANGLE_UNIT ( ) );
#1149 = SURFACE_SIDE_STYLE ('',( #295 ) ) ;
#1150 = SURFACE_SIDE_STYLE ('',( #90 ) ) ;
#1151 = EDGE_CURVE ( 'NONE', #1184, #332, #775, .T. ) ;
#1152 = ORIENTED_EDGE ( 'NONE', *, *, #590, .F. ) ;
#1153 = SURFACE_STYLE_USAGE ( .BOTH. , #625 ) ;
#1154 = CARTESIAN_POINT ( 'NONE',  ( -0.6250000000000000000, 0.3600000000000000422, -0.1250000000000000555 ) ) ;
#1155 = FACE_OUTER_BOUND ( 'NONE', #1320, .T. ) ;
#1156 =( NAMED_UNIT ( * ) PLANE_ANGLE_UNIT ( ) SI_UNIT ( $, .RADIAN. ) );
#1157 =( NAMED_UNIT ( * ) PLANE_ANGLE_UNIT ( ) SI_UNIT ( $, .RADIAN. ) );
#1158 = ADVANCED_FACE ( 'NONE', ( #9 ), #1061, .F. ) ;
#1159 = PRESENTATION_STYLE_ASSIGNMENT (( #608 ) ) ;
#1160 = PRESENTATION_STYLE_ASSIGNMENT (( #210 ) ) ;
#1161 = FACE_OUTER_BOUND ( 'NONE', #870, .T. ) ;
#1162 = PLANE ( 'NONE',  #58 ) ;
#1163 = LINE ( 'NONE', #106, #115 ) ;
#1164 = MECHANICAL_DESIGN_GEOMETRIC_PRESENTATION_REPRESENTATION (  '', ( #1033 ), #102 ) ;
#1165 = SURFACE_SIDE_STYLE ('',( #952 ) ) ;
#1166 = ORIENTED_EDGE ( 'NONE', *, *, #1027, .T. ) ;
#1167 = SURFACE_STYLE_USAGE ( .BOTH. , #1060 ) ;
#1168 = FACE_OUTER_BOUND ( 'NONE', #1353, .T. ) ;
#1169 = ADVANCED_FACE ( 'NONE', ( #216 ), #758, .T. ) ;
#1170 = CARTESIAN_POINT ( 'NONE',  ( 0.000000000000000000, 0.3600000000000000422, 0.1250000000000000555 ) ) ;
#1171 = ADVANCED_FACE ( 'NONE', ( #390 ), #178, .T. ) ;
#1172 = VERTEX_POINT ( 'NONE', #782 ) ;
#1173 = CARTESIAN_POINT ( 'NONE',  ( -0.1250000000000000000, 0.3600000000000000422, 0.4500000000000000666 ) ) ;
#1174 = ORIENTED_EDGE ( 'NONE', *, *, #1357, .F. ) ;
#1175 = EDGE_LOOP ( 'NONE', ( #1174, #694, #438, #366 ) ) ;
#1176 = VECTOR ( 'NONE', #795, 1000.000000000000000 ) ;
#1177 = FACE_OUTER_BOUND ( 'NONE', #550, .T. ) ;
#1178 = ADVANCED_FACE ( 'NONE', ( #183 ), #880, .F. ) ;
#1179 = LINE ( 'NONE', #247, #830 ) ;
#1180 = EDGE_LOOP ( 'NONE', ( #75, #69, #961, #1107 ) ) ;
#1181 = STYLED_ITEM ( 'NONE', ( #746 ), #971 ) ;
#1182 = PRESENTATION_LAYER_ASSIGNMENT (  '', '', ( #359 ) ) ;
#1183 = PRESENTATION_STYLE_ASSIGNMENT (( #549 ) ) ;
#1184 = VERTEX_POINT ( 'NONE', #1305 ) ;
#1185 = COLOUR_RGB ( '',0.6470588235294117974, 0.5176470588235293491, 0.000000000000000000 ) ;
#1186 = PLANE ( 'NONE',  #1265 ) ;
#1187 = UNCERTAINTY_MEASURE_WITH_UNIT (LENGTH_MEASURE( 1.000000000000000082E-05 ), #582, 'distance_accuracy_value', 'NONE');
#1188 = CARTESIAN_POINT ( 'NONE',  ( -0.6999999999999999556, 0.3499999999999999778, -0.5500000000000000444 ) ) ;
#1189 = FILL_AREA_STYLE ('',( #436 ) ) ;
#1190 = LINE ( 'NONE', #1303, #406 ) ;
#1191 = ORIENTED_EDGE ( 'NONE', *, *, #387, .T. ) ;
#1192 =( NAMED_UNIT ( * ) PLANE_ANGLE_UNIT ( ) SI_UNIT ( $, .RADIAN. ) );
#1193 = SURFACE_STYLE_USAGE ( .BOTH. , #501 ) ;
#1194 =( NAMED_UNIT ( * ) SI_UNIT ( $, .STERADIAN. ) SOLID_ANGLE_UNIT ( ) );
#1195 = SURFACE_STYLE_FILL_AREA ( #675 ) ;
#1196 = CARTESIAN_POINT ( 'NONE',  ( 0.000000000000000000, 0.3600000000000000422, -0.1250000000000000555 ) ) ;
#1197 = ORIENTED_EDGE ( 'NONE', *, *, #917, .T. ) ;
#1198 = CARTESIAN_POINT ( 'NONE',  ( 0.1250000000000000555, 0.3600000000000000422, 0.4500000000000000666 ) ) ;
#1199 = SURFACE_STYLE_USAGE ( .BOTH. , #684 ) ;
#1200 = LINE ( 'NONE', #356, #381 ) ;
#1201 = DIRECTION ( 'NONE',  ( 1.000000000000000000, 0.000000000000000000, 0.000000000000000000 ) ) ;
#1202 = MECHANICAL_DESIGN_GEOMETRIC_PRESENTATION_REPRESENTATION (  '', ( #708 ), #243 ) ;
#1203 = PRESENTATION_STYLE_ASSIGNMENT (( #928 ) ) ;
#1204 = VERTEX_POINT ( 'NONE', #1241 ) ;
#1205 = FACE_OUTER_BOUND ( 'NONE', #666, .T. ) ;
#1206 = ORIENTED_EDGE ( 'NONE', *, *, #832, .F. ) ;
#1207 = CARTESIAN_POINT ( 'NONE',  ( 0.6250000000000002220, 0.3600000000000000422, 0.000000000000000000 ) ) ;
#1208 = VECTOR ( 'NONE', #1036, 1000.000000000000000 ) ;
#1209 = STYLED_ITEM ( 'NONE', ( #644 ), #1315 ) ;
#1210 = CARTESIAN_POINT ( 'NONE',  ( -0.1249999999999999722, 0.3499999999999999778, 0.1250000000000000555 ) ) ;
#1211 = PRESENTATION_LAYER_ASSIGNMENT (  '', '', ( #470 ) ) ;
#1212 = LINE ( 'NONE', #1030, #79 ) ;
#1213 = EDGE_CURVE ( 'NONE', #1024, #1059, #805, .T. ) ;
#1214 = EDGE_LOOP ( 'NONE', ( #478, #786, #1071, #388 ) ) ;
#1215 = FILL_AREA_STYLE_COLOUR ( '', #1185 ) ;
#1216 = LINE ( 'NONE', #885, #10 ) ;
#1217 = CARTESIAN_POINT ( 'NONE',  ( 0.000000000000000000, 0.3499999999999999778, 0.1250000000000000555 ) ) ;
#1218 = EDGE_CURVE ( 'NONE', #344, #355, #594, .T. ) ;
#1219 = UNCERTAINTY_MEASURE_WITH_UNIT (LENGTH_MEASURE( 1.000000000000000082E-05 ), #1282, 'distance_accuracy_value', 'NONE');
#1220 = DIRECTION ( 'NONE',  ( 0.000000000000000000, 0.000000000000000000, -1.000000000000000000 ) ) ;
#1221 = VERTEX_POINT ( 'NONE', #1026 ) ;
#1222 = FILL_AREA_STYLE_COLOUR ( '', #785 ) ;
#1223 =( NAMED_UNIT ( * ) SI_UNIT ( $, .STERADIAN. ) SOLID_ANGLE_UNIT ( ) );
#1224 = CARTESIAN_POINT ( 'NONE',  ( -0.3750000000000000000, 0.3600000000000000422, -0.4500000000000000666 ) ) ;
#1225 = PRESENTATION_LAYER_ASSIGNMENT (  '', '', ( #713 ) ) ;
#1226 = ORIENTED_EDGE ( 'NONE', *, *, #633, .T. ) ;
#1227 = LINE ( 'NONE', #1207, #357 ) ;
#1228 = DIRECTION ( 'NONE',  ( 0.000000000000000000, 0.000000000000000000, -1.000000000000000000 ) ) ;
#1229 = SURFACE_SIDE_STYLE ('',( #804 ) ) ;
#1230 =( GEOMETRIC_REPRESENTATION_CONTEXT ( 3 ) GLOBAL_UNCERTAINTY_ASSIGNED_CONTEXT ( ( #1112 ) ) GLOBAL_UNIT_ASSIGNED_CONTEXT ( ( #1302, #693, #290 ) ) REPRESENTATION_CONTEXT ( 'NONE', 'WORKASPACE' ) );
#1231 = DIRECTION ( 'NONE',  ( -0.000000000000000000, -1.000000000000000000, -0.000000000000000000 ) ) ;
#1232 =( LENGTH_UNIT ( ) NAMED_UNIT ( * ) SI_UNIT ( .MILLI., .METRE. ) );
#1233 = UNCERTAINTY_MEASURE_WITH_UNIT (LENGTH_MEASURE( 1.000000000000000082E-05 ), #8, 'distance_accuracy_value', 'NONE');
#1234 = ORIENTED_EDGE ( 'NONE', *, *, #720, .F. ) ;
#1235 = FILL_AREA_STYLE_COLOUR ( '', #1073 ) ;
#1236 = LINE ( 'NONE', #1130, #1291 ) ;
#1237 = DIRECTION ( 'NONE',  ( -0.000000000000000000, -1.000000000000000000, -0.000000000000000000 ) ) ;
#1238 = ORIENTED_EDGE ( 'NONE', *, *, #402, .T. ) ;
#1239 = DIRECTION ( 'NONE',  ( -1.000000000000000000, 0.000000000000000000, -0.000000000000000000 ) ) ;
#1240 = SURFACE_SIDE_STYLE ('',( #182 ) ) ;
#1241 = CARTESIAN_POINT ( 'NONE',  ( 0.3750000000000000000, 0.3499999999999999778, 0.1625000000000000056 ) ) ;
#1242 =( NAMED_UNIT ( * ) PLANE_ANGLE_UNIT ( ) SI_UNIT ( $, .RADIAN. ) );
#1243 = CARTESIAN_POINT ( 'NONE',  ( -0.1250000000000000000, 0.3600000000000000422, 0.4500000000000000666 ) ) ;
#1244 = UNCERTAINTY_MEASURE_WITH_UNIT (LENGTH_MEASURE( 1.000000000000000082E-05 ), #1278, 'distance_accuracy_value', 'NONE');
#1245 = ADVANCED_FACE ( 'NONE', ( #88 ), #191, .T. ) ;
#1246 = VECTOR ( 'NONE', #680, 1000.000000000000000 ) ;
#1247 = ORIENTED_EDGE ( 'NONE', *, *, #1363, .F. ) ;
#1248 =( NAMED_UNIT ( * ) PLANE_ANGLE_UNIT ( ) SI_UNIT ( $, .RADIAN. ) );
#1249 = AXIS2_PLACEMENT_3D ( 'NONE', #486, #1122, #1138 ) ;
#1250 = FILL_AREA_STYLE ('',( #498 ) ) ;
#1251 = VECTOR ( 'NONE', #353, 1000.000000000000000 ) ;
#1252 = COLOUR_RGB ( '',0.2509803921568627416, 0.2509803921568627416, 0.2509803921568627416 ) ;
#1253 = CARTESIAN_POINT ( 'NONE',  ( 0.1250000000000000833, 0.3499999999999999778, -0.1250000000000000555 ) ) ;
#1254 =( GEOMETRIC_REPRESENTATION_CONTEXT ( 3 ) GLOBAL_UNCERTAINTY_ASSIGNED_CONTEXT ( ( #1125 ) ) GLOBAL_UNIT_ASSIGNED_CONTEXT ( ( #1338, #671, #1148 ) ) REPRESENTATION_CONTEXT ( 'NONE', 'WORKASPACE' ) );
#1255 =( GEOMETRIC_REPRESENTATION_CONTEXT ( 3 ) GLOBAL_UNCERTAINTY_ASSIGNED_CONTEXT ( ( #83 ) ) GLOBAL_UNIT_ASSIGNED_CONTEXT ( ( #1143, #1157, #313 ) ) REPRESENTATION_CONTEXT ( 'NONE', 'WORKASPACE' ) );
#1256 = ORIENTED_EDGE ( 'NONE', *, *, #62, .T. ) ;
#1257 = PLANE ( 'NONE',  #48 ) ;
#1258 = PRESENTATION_STYLE_ASSIGNMENT (( #1167 ) ) ;
#1259 = EDGE_CURVE ( 'NONE', #1077, #1092, #609, .T. ) ;
#1260 = LINE ( 'NONE', #526, #143 ) ;
#1261 =( NAMED_UNIT ( * ) PLANE_ANGLE_UNIT ( ) SI_UNIT ( $, .RADIAN. ) );
#1262 = PRESENTATION_STYLE_ASSIGNMENT (( #100 ) ) ;
#1263 = FILL_AREA_STYLE_COLOUR ( '', #95 ) ;
#1264 = LINE ( 'NONE', #314, #624 ) ;
#1265 = AXIS2_PLACEMENT_3D ( 'NONE', #170, #364, #559 ) ;
#1266 = CARTESIAN_POINT ( 'NONE',  ( 0.1250000000000000833, 0.3600000000000000422, -0.1250000000000000555 ) ) ;
#1267 = AXIS2_PLACEMENT_3D ( 'NONE', #167, #1012, #176 ) ;
#1268 = LINE ( 'NONE', #507, #1006 ) ;
#1269 = ORIENTED_EDGE ( 'NONE', *, *, #71, .F. ) ;
#1270 = DIRECTION ( 'NONE',  ( -0.000000000000000000, -1.000000000000000000, -0.000000000000000000 ) ) ;
#1271 = PRESENTATION_LAYER_ASSIGNMENT (  '', '', ( #1142 ) ) ;
#1272 = FILL_AREA_STYLE ('',( #640 ) ) ;
#1273 =( GEOMETRIC_REPRESENTATION_CONTEXT ( 3 ) GLOBAL_UNCERTAINTY_ASSIGNED_CONTEXT ( ( #275 ) ) GLOBAL_UNIT_ASSIGNED_CONTEXT ( ( #711, #1248, #1129 ) ) REPRESENTATION_CONTEXT ( 'NONE', 'WORKASPACE' ) );
#1274 = EDGE_CURVE ( 'NONE', #1342, #637, #856, .T. ) ;
#1275 = VECTOR ( 'NONE', #192, 1000.000000000000000 ) ;
#1276 = VECTOR ( 'NONE', #26, 1000.000000000000000 ) ;
#1277 =( NAMED_UNIT ( * ) SI_UNIT ( $, .STERADIAN. ) SOLID_ANGLE_UNIT ( ) );
#1278 =( LENGTH_UNIT ( ) NAMED_UNIT ( * ) SI_UNIT ( .MILLI., .METRE. ) );
#1279 = ORIENTED_EDGE ( 'NONE', *, *, #27, .F. ) ;
#1280 = PRESENTATION_STYLE_ASSIGNMENT (( #1193 ) ) ;
#1281 = EDGE_LOOP ( 'NONE', ( #11, #1284, #431, #29 ) ) ;
#1282 =( LENGTH_UNIT ( ) NAMED_UNIT ( * ) SI_UNIT ( .MILLI., .METRE. ) );
#1283 = FILL_AREA_STYLE_COLOUR ( '', #1074 ) ;
#1284 = ORIENTED_EDGE ( 'NONE', *, *, #1365, .F. ) ;
#1285 = ORIENTED_EDGE ( 'NONE', *, *, #1069, .F. ) ;
#1286 = EDGE_CURVE ( 'NONE', #346, #193, #1268, .T. ) ;
#1287 = UNCERTAINTY_MEASURE_WITH_UNIT (LENGTH_MEASURE( 1.000000000000000082E-05 ), #263, 'distance_accuracy_value', 'NONE');
#1288 = FILL_AREA_STYLE_COLOUR ( '', #1345 ) ;
#1289 = PLANE ( 'NONE',  #1144 ) ;
#1290 = ORIENTED_EDGE ( 'NONE', *, *, #600, .T. ) ;
#1291 = VECTOR ( 'NONE', #1021, 1000.000000000000000 ) ;
#1292 = EDGE_CURVE ( 'NONE', #346, #454, #317, .T. ) ;
#1293 = DIRECTION ( 'NONE',  ( 1.000000000000000000, -0.000000000000000000, 0.000000000000000000 ) ) ;
#1294 = DIRECTION ( 'NONE',  ( 8.340016711426957754E-17, 0.000000000000000000, 1.000000000000000000 ) ) ;
#1295 = ADVANCED_FACE ( 'NONE', ( #936 ), #414, .T. ) ;
#1296 = PLANE ( 'NONE',  #766 ) ;
#1297 = DIRECTION ( 'NONE',  ( 0.000000000000000000, 0.000000000000000000, -1.000000000000000000 ) ) ;
#1298 = ORIENTED_EDGE ( 'NONE', *, *, #45, .F. ) ;
#1299 = DIRECTION ( 'NONE',  ( -0.000000000000000000, -1.000000000000000000, -0.000000000000000000 ) ) ;
#1300 = EDGE_CURVE ( 'NONE', #584, #511, #112, .T. ) ;
#1301 = VERTEX_POINT ( 'NONE', #850 ) ;
#1302 =( LENGTH_UNIT ( ) NAMED_UNIT ( * ) SI_UNIT ( .MILLI., .METRE. ) );
#1303 = CARTESIAN_POINT ( 'NONE',  ( -0.6250000000000000000, 0.3600000000000000422, 0.000000000000000000 ) ) ;
#1304 = EDGE_CURVE ( 'NONE', #1371, #1064, #326, .T. ) ;
#1305 = CARTESIAN_POINT ( 'NONE',  ( 0.1250000000000000555, 0.3499999999999999778, -0.4500000000000000666 ) ) ;
#1306 = ORIENTED_EDGE ( 'NONE', *, *, #107, .F. ) ;
#1307 = EDGE_CURVE ( 'NONE', #149, #425, #1040, .T. ) ;
#1308 = EDGE_CURVE ( 'NONE', #809, #149, #617, .T. ) ;
#1309 = CARTESIAN_POINT ( 'NONE',  ( 0.1250000000000000833, 0.3600000000000000422, 1.042502088928370490E-17 ) ) ;
#1310 = CARTESIAN_POINT ( 'NONE',  ( 0.000000000000000000, 0.3600000000000000422, -0.1250000000000000555 ) ) ;
#1311 = EDGE_LOOP ( 'NONE', ( #1328, #929, #448, #166 ) ) ;
#1312 = PRODUCT_CONTEXT ( 'NONE', #635, 'mechanical' ) ;
#1313 = FILL_AREA_STYLE_COLOUR ( '', #533 ) ;
#1314 = AXIS2_PLACEMENT_3D ( 'NONE', #1043, #819, #93 ) ;
#1315 = ADVANCED_FACE ( 'NONE', ( #219 ), #1106, .F. ) ;
#1316 = STYLED_ITEM ( 'NONE', ( #265 ), #577 ) ;
#1317 =( LENGTH_UNIT ( ) NAMED_UNIT ( * ) SI_UNIT ( .MILLI., .METRE. ) );
#1318 = UNCERTAINTY_MEASURE_WITH_UNIT (LENGTH_MEASURE( 1.000000000000000082E-05 ), #508, 'distance_accuracy_value', 'NONE');
#1319 = MECHANICAL_DESIGN_GEOMETRIC_PRESENTATION_REPRESENTATION (  '', ( #188 ), #983 ) ;
#1320 = EDGE_LOOP ( 'NONE', ( #31, #672, #773, #1136 ) ) ;
#1321 = PRESENTATION_LAYER_ASSIGNMENT (  '', '', ( #735 ) ) ;
#1322 = SURFACE_SIDE_STYLE ('',( #1120 ) ) ;
#1323 = VECTOR ( 'NONE', #523, 1000.000000000000000 ) ;
#1324 = LINE ( 'NONE', #1348, #1176 ) ;
#1325 = VECTOR ( 'NONE', #905, 1000.000000000000000 ) ;
#1326 = COLOUR_RGB ( '',0.6470588235294117974, 0.5176470588235293491, 0.000000000000000000 ) ;
#1327 = LINE ( 'NONE', #1217, #446 ) ;
#1328 = ORIENTED_EDGE ( 'NONE', *, *, #863, .F. ) ;
#1329 = LINE ( 'NONE', #472, #1048 ) ;
#1330 = ADVANCED_FACE ( 'NONE', ( #557 ), #1289, .F. ) ;
#1331 = FILL_AREA_STYLE_COLOUR ( '', #715 ) ;
#1332 = SURFACE_SIDE_STYLE ('',( #1110 ) ) ;
#1333 = CARTESIAN_POINT ( 'NONE',  ( -0.1250000000000000000, 0.3600000000000000422, -0.4500000000000000666 ) ) ;
#1334 = UNCERTAINTY_MEASURE_WITH_UNIT (LENGTH_MEASURE( 1.000000000000000082E-05 ), #955, 'distance_accuracy_value', 'NONE');
#1335 = SURFACE_SIDE_STYLE ('',( #922 ) ) ;
#1336 = ORIENTED_EDGE ( 'NONE', *, *, #997, .F. ) ;
#1337 =( LENGTH_UNIT ( ) NAMED_UNIT ( * ) SI_UNIT ( .MILLI., .METRE. ) );
#1338 =( LENGTH_UNIT ( ) NAMED_UNIT ( * ) SI_UNIT ( .MILLI., .METRE. ) );
#1339 = CARTESIAN_POINT ( 'NONE',  ( 0.000000000000000000, 0.3499999999999999778, 0.1250000000000000555 ) ) ;
#1340 = PRESENTATION_LAYER_ASSIGNMENT (  '', '', ( #708 ) ) ;
#1341 = FILL_AREA_STYLE ('',( #185 ) ) ;
#1342 = VERTEX_POINT ( 'NONE', #30 ) ;
#1343 =( NAMED_UNIT ( * ) PLANE_ANGLE_UNIT ( ) SI_UNIT ( $, .RADIAN. ) );
#1344 = MECHANICAL_DESIGN_GEOMETRIC_PRESENTATION_REPRESENTATION (  '', ( #222 ), #868 ) ;
#1345 = COLOUR_RGB ( '',0.6470588235294117974, 0.5176470588235293491, 0.000000000000000000 ) ;
#1346 = DIRECTION ( 'NONE',  ( -9.856383386231860060E-17, 0.000000000000000000, -1.000000000000000000 ) ) ;
#1347 = AXIS2_PLACEMENT_3D ( 'NONE', #987, #919, #1346 ) ;
#1348 = CARTESIAN_POINT ( 'NONE',  ( 0.000000000000000000, 0.3600000000000000422, -0.1250000000000000555 ) ) ;
#1349 = VECTOR ( 'NONE', #808, 1000.000000000000000 ) ;
#1350 = CARTESIAN_POINT ( 'NONE',  ( 0.1250000000000000833, 0.3600000000000000422, -0.1250000000000000555 ) ) ;
#1351 = EDGE_CURVE ( 'NONE', #61, #949, #437, .T. ) ;
#1352 = LINE ( 'NONE', #1131, #189 ) ;
#1353 = EDGE_LOOP ( 'NONE', ( #632, #108, #156, #1088 ) ) ;
#1354 =( NAMED_UNIT ( * ) PLANE_ANGLE_UNIT ( ) SI_UNIT ( $, .RADIAN. ) );
#1355 = CARTESIAN_POINT ( 'NONE',  ( 0.000000000000000000, -0.3499999999999999778, 0.000000000000000000 ) ) ;
#1356 = PLANE ( 'NONE',  #1314 ) ;
#1357 = EDGE_CURVE ( 'NONE', #985, #1342, #1190, .T. ) ;
#1358 = VERTEX_POINT ( 'NONE', #1066 ) ;
#1359 = FILL_AREA_STYLE_COLOUR ( '', #421 ) ;
#1360 = DIRECTION ( 'NONE',  ( 0.000000000000000000, 0.000000000000000000, 1.000000000000000000 ) ) ;
#1361 = DIRECTION ( 'NONE',  ( 0.000000000000000000, 0.000000000000000000, 1.000000000000000000 ) ) ;
#1362 = PRESENTATION_STYLE_ASSIGNMENT (( #405 ) ) ;
#1363 = EDGE_CURVE ( 'NONE', #1172, #140, #1200, .T. ) ;
#1364 =( NAMED_UNIT ( * ) SI_UNIT ( $, .STERADIAN. ) SOLID_ANGLE_UNIT ( ) );
#1365 = EDGE_CURVE ( 'NONE', #862, #415, #132, .T. ) ;
#1366 = COLOUR_RGB ( '',0.2509803921568627416, 0.2509803921568627416, 0.2509803921568627416 ) ;
#1367 = EDGE_LOOP ( 'NONE', ( #901, #86, #645, #260 ) ) ;
#1368 = ADVANCED_FACE ( 'NONE', ( #1177 ), #221, .T. ) ;
#1369 = DIRECTION ( 'NONE',  ( -0.000000000000000000, -1.000000000000000000, -0.000000000000000000 ) ) ;
#1370 = FILL_AREA_STYLE ('',( #1283 ) ) ;
#1371 = VERTEX_POINT ( 'NONE', #564 ) ;
#1372 = STYLED_ITEM ( 'NONE', ( #293 ), #946 ) ;
#1373 =( GEOMETRIC_REPRESENTATION_CONTEXT ( 3 ) GLOBAL_UNCERTAINTY_ASSIGNED_CONTEXT ( ( #1219 ) ) GLOBAL_UNIT_ASSIGNED_CONTEXT ( ( #1282, #968, #343 ) ) REPRESENTATION_CONTEXT ( 'NONE', 'WORKASPACE' ) );
#1374 = PRESENTATION_LAYER_ASSIGNMENT (  '', '', ( #442 ) ) ;
#1375 = DIRECTION ( 'NONE',  ( 0.000000000000000000, 0.000000000000000000, 1.000000000000000000 ) ) ;
#1376 = ADVANCED_FACE ( 'NONE', ( #996 ), #1356, .F. ) ;
#1377 = PRESENTATION_LAYER_ASSIGNMENT (  '', '', ( #578 ) ) ;
ENDSEC;
END-ISO-10303-21;
