#VRML V2.0 utf8
# Approximate datasheet envelope, not manufacturer CAD.
Transform { translation 0.0 0.39370078740157477 0.8858267716535433 children [ Shape { appearance Appearance { material Material { diffuseColor 0.85 0.75 0.60 } } geometry Box { size 7.086614173228346 7.086614173228346 1.7716535433070866 } } ] }
Transform { translation 0.0 0.0 -0.47244094488188976 children [ Shape { appearance Appearance { material Material { diffuseColor 0.8 0.8 0.8 } } geometry Box { size 0.3543307086614173 0.3543307086614173 0.9448818897637795 } } ] }
